<?xml version="1.0" encoding="UTF-8"?><!DOCTYPE svg PUBLIC "-//W3C//DTD SVG 1.1//EN" "http://www.w3.org/Graphics/SVG/1.1/DTD/svg11.dtd"><svg xmlns="http://www.w3.org/2000/svg"><symbol id="icon-code" viewBox="0 0 136.91 136.91"><circle fill="#344E5D" cx="68.46" cy="68.46" r="63.33"/><path fill="#CDCCCB" d="M110.07 39.38c0 .42-.34.76-.76.76H30.12c-.42 0-.76-.34-.76-.76s.34-.76.76-.76h79.18c.43 0 .77.34.77.76z"/><circle fill="#E84849" cx="90.36" cy="39.38" r="2.15"/><path fill="#fff" d="M88.64 39.73c-.38-.38-.05-1.32.33-1.7.38-.38 1.32-.71 1.7-.33.38.38-1.65 2.41-2.03 2.03z"/><circle fill="#E84849" cx="85.66" cy="39.38" r="2.15"/><path fill="#fff" d="M83.94 39.73c-.38-.38-.05-1.32.33-1.7.38-.38 1.32-.71 1.7-.33.38.38-1.65 2.41-2.03 2.03z"/><circle fill="#E84849" cx="94.85" cy="39.38" r="2.15"/><path fill="#fff" d="M93.13 39.73c-.38-.38-.05-1.32.33-1.7.38-.38 1.32-.71 1.7-.33.37.38-1.65 2.41-2.03 2.03z"/><circle fill="#E84849" cx="99.29" cy="39.38" r="2.15"/><path fill="#fff" d="M97.57 39.73c-.38-.38-.05-1.32.33-1.7.38-.38 1.32-.71 1.7-.33.38.38-1.65 2.41-2.03 2.03z"/><circle fill="#E84849" cx="103.82" cy="39.38" r="2.15"/><path fill="#fff" d="M102.1 39.73c-.38-.38-.05-1.32.33-1.7.38-.38 1.32-.71 1.7-.33.38.38-1.65 2.41-2.03 2.03z"/><circle fill="#D5CEA9" cx="39.76" cy="39.38" r="2.15"/><path fill="#fff" d="M38.04 39.73c-.38-.38-.05-1.32.33-1.7.38-.38 1.32-.71 1.7-.33.38.38-1.65 2.41-2.03 2.03z"/><circle fill="#D5CEA9" cx="35.24" cy="39.38" r="2.15"/><path fill="#fff" d="M33.52 39.73c-.38-.38-.05-1.32.33-1.7.38-.38 1.32-.71 1.7-.33.38.38-1.65 2.41-2.03 2.03z"/><circle fill="#D5CEA9" cx="44.41" cy="39.38" r="2.15"/><path fill="#fff" d="M42.69 39.73c-.38-.38-.05-1.32.33-1.7.38-.38 1.32-.71 1.7-.33.38.38-1.65 2.41-2.03 2.03z"/><circle fill="#D5CEA9" cx="49.06" cy="39.38" r="2.15"/><path fill="#fff" d="M47.34 39.73c-.38-.38-.05-1.32.33-1.7.38-.38 1.32-.71 1.7-.33.38.38-1.65 2.41-2.03 2.03z"/><circle fill="#D5CEA9" cx="53.71" cy="39.38" r="2.15"/><path fill="#fff" d="M52 39.73c-.38-.38-.05-1.32.33-1.7.38-.38 1.32-.71 1.7-.33.37.38-1.66 2.41-2.03 2.03z"/><path fill="#CDCCCB" d="M110.07 46.36c0 .42-.34.76-.76.76H30.12c-.42 0-.76-.34-.76-.76s.34-.76.76-.76h79.18c.43 0 .77.34.77.76zM110.07 52.95c0 .42-.34.76-.76.76H30.12c-.42 0-.76-.34-.76-.76s.34-.76.76-.76h79.18c.43-.01.77.33.77.76zM110.07 59.32c0 .42-.34.76-.76.76H30.12c-.42 0-.76-.34-.76-.76s.34-.76.76-.76h79.18c.43 0 .77.34.77.76zM110.07 65.76c0 .42-.34.76-.76.76H30.12c-.42 0-.76-.34-.76-.76s.34-.76.76-.76h79.18c.43 0 .77.34.77.76zM110.07 72.63c0 .42-.34.76-.76.76H30.12c-.42 0-.76-.34-.76-.76s.34-.76.76-.76h79.18c.43 0 .77.34.77.76zM110.07 79.23c0 .42-.34.76-.76.76H30.12c-.42 0-.76-.34-.76-.76s.34-.76.76-.76h79.18c.43 0 .77.34.77.76zM110.07 86.21c0 .42-.34.76-.76.76H30.12c-.42 0-.76-.34-.76-.76s.34-.76.76-.76h79.18c.43 0 .77.34.77.76zM110.07 92.8c0 .42-.34.76-.76.76H30.12c-.42 0-.76-.34-.76-.76s.34-.76.76-.76h79.18c.43-.01.77.33.77.76zM110.07 99.17c0 .42-.34.76-.76.76H30.12c-.42 0-.76-.34-.76-.76s.34-.76.76-.76h79.18c.43 0 .77.34.77.76z"/><path fill="#B58755" d="M32.41 99.3c0 1.26-1.02 2.29-2.29 2.29s-2.29-1.02-2.29-2.29V36.71c0-1.26 1.02-2.29 2.29-2.29 1.26 0 2.29 1.02 2.29 2.29V99.3zM110.83 99.3c0 1.26-1.02 2.29-2.29 2.29-1.26 0-2.29-1.02-2.29-2.29V36.71c0-1.26 1.02-2.29 2.29-2.29 1.26 0 2.29 1.02 2.29 2.29V99.3z"/><circle fill="#E84849" cx="77.19" cy="46.25" r="2.15"/><path fill="#fff" d="M75.47 46.6c-.38-.38-.05-1.32.33-1.7.38-.38 1.32-.71 1.7-.33.38.38-1.65 2.41-2.03 2.03z"/><circle fill="#E84849" cx="72.5" cy="46.25" r="2.15"/><path fill="#fff" d="M70.78 46.6c-.38-.38-.05-1.32.33-1.7.38-.38 1.32-.71 1.7-.33.38.38-1.65 2.41-2.03 2.03z"/><circle fill="#E84849" cx="94.85" cy="46.25" r="2.15"/><path fill="#fff" d="M93.13 46.6c-.38-.38-.05-1.32.33-1.7.38-.38 1.32-.71 1.7-.33.37.38-1.65 2.41-2.03 2.03z"/><circle fill="#E84849" cx="99.29" cy="46.25" r="2.15"/><path fill="#fff" d="M97.57 46.6c-.38-.38-.05-1.32.33-1.7.38-.38 1.32-.71 1.7-.33.38.38-1.65 2.41-2.03 2.03z"/><circle fill="#E84849" cx="103.82" cy="46.25" r="2.15"/><path fill="#fff" d="M102.1 46.6c-.38-.38-.05-1.32.33-1.7.38-.38 1.32-.71 1.7-.33.38.38-1.65 2.41-2.03 2.03z"/><circle fill="#D5CEA9" cx="39.76" cy="46.25" r="2.15"/><path fill="#fff" d="M38.04 46.6c-.38-.38-.05-1.32.33-1.7.38-.38 1.32-.71 1.7-.33.38.38-1.65 2.41-2.03 2.03z"/><circle fill="#D5CEA9" cx="35.24" cy="46.25" r="2.15"/><path fill="#fff" d="M33.52 46.6c-.38-.38-.05-1.32.33-1.7.38-.38 1.32-.71 1.7-.33.38.38-1.65 2.41-2.03 2.03z"/><circle fill="#D5CEA9" cx="44.41" cy="46.25" r="2.15"/><path fill="#fff" d="M42.69 46.6c-.38-.38-.05-1.32.33-1.7.38-.38 1.32-.71 1.7-.33.38.38-1.65 2.41-2.03 2.03z"/><circle fill="#D5CEA9" cx="49.06" cy="46.25" r="2.15"/><path fill="#fff" d="M47.34 46.6c-.38-.38-.05-1.32.33-1.7.38-.38 1.32-.71 1.7-.33.38.38-1.65 2.41-2.03 2.03z"/><circle fill="#D5CEA9" cx="67.45" cy="46.25" r="2.15"/><path fill="#fff" d="M65.73 46.6c-.38-.38-.05-1.32.33-1.7.38-.38 1.32-.71 1.7-.33.38.38-1.65 2.41-2.03 2.03z"/><circle fill="#E84849" cx="76.62" cy="52.8" r="2.15"/><path fill="#fff" d="M74.9 53.15c-.38-.38-.05-1.32.33-1.7s1.32-.71 1.7-.33c.38.38-1.65 2.41-2.03 2.03z"/><circle fill="#E84849" cx="71.92" cy="52.8" r="2.15"/><path fill="#fff" d="M70.21 53.15c-.38-.38-.05-1.32.33-1.7s1.32-.71 1.7-.33c.37.38-1.66 2.41-2.03 2.03z"/><circle fill="#E84849" cx="94.85" cy="52.8" r="2.15"/><path fill="#fff" d="M93.13 53.15c-.38-.38-.05-1.32.33-1.7s1.32-.71 1.7-.33c.37.38-1.65 2.41-2.03 2.03z"/><circle fill="#E84849" cx="99.29" cy="52.8" r="2.15"/><path fill="#fff" d="M97.57 53.15c-.38-.38-.05-1.32.33-1.7s1.32-.71 1.7-.33c.38.38-1.65 2.41-2.03 2.03z"/><circle fill="#E84849" cx="103.82" cy="52.8" r="2.15"/><path fill="#fff" d="M102.1 53.15c-.38-.38-.05-1.32.33-1.7.38-.38 1.32-.71 1.7-.33.38.38-1.65 2.41-2.03 2.03z"/><circle fill="#D5CEA9" cx="53.11" cy="52.99" r="2.15"/><path fill="#fff" d="M51.4 53.34c-.38-.38-.05-1.32.33-1.7.38-.38 1.32-.71 1.7-.33.37.38-1.66 2.41-2.03 2.03z"/><circle fill="#D5CEA9" cx="48.6" cy="52.99" r="2.15"/><path fill="#fff" d="M46.88 53.34c-.38-.38-.05-1.32.33-1.7.38-.38 1.32-.71 1.7-.33.38.38-1.65 2.41-2.03 2.03z"/><circle fill="#D5CEA9" cx="57.77" cy="52.8" r="2.15"/><path fill="#fff" d="M56.05 53.15c-.38-.38-.05-1.32.33-1.7s1.32-.71 1.7-.33c.38.38-1.65 2.41-2.03 2.03z"/><circle fill="#D5CEA9" cx="62.41" cy="52.8" r="2.15"/><path fill="#fff" d="M60.69 53.15c-.38-.38-.05-1.32.33-1.7s1.32-.71 1.7-.33c.38.38-1.65 2.41-2.03 2.03z"/><circle fill="#D5CEA9" cx="67.07" cy="52.8" r="2.15"/><path fill="#fff" d="M65.35 53.15c-.38-.38-.05-1.32.33-1.7.38-.38 1.32-.71 1.7-.33.38.38-1.65 2.41-2.03 2.03z"/><circle fill="#E84849" cx="90.36" cy="59.13" r="2.15"/><path fill="#fff" d="M88.64 59.48c-.38-.38-.05-1.32.33-1.7.38-.38 1.32-.71 1.7-.33.38.38-1.65 2.41-2.03 2.03z"/><circle fill="#E84849" cx="71.73" cy="59.13" r="2.15"/><path fill="#fff" d="M70.02 59.48c-.38-.38-.05-1.32.33-1.7.38-.38 1.32-.71 1.7-.33.37.38-1.66 2.41-2.03 2.03z"/><circle fill="#E84849" cx="94.85" cy="59.13" r="2.15"/><path fill="#fff" d="M93.13 59.48c-.38-.38-.05-1.32.33-1.7s1.32-.71 1.7-.33c.37.38-1.65 2.41-2.03 2.03z"/><circle fill="#E84849" cx="99.29" cy="59.13" r="2.15"/><path fill="#fff" d="M97.57 59.48c-.38-.38-.05-1.32.33-1.7s1.32-.71 1.7-.33c.38.38-1.65 2.41-2.03 2.03z"/><circle fill="#E84849" cx="103.82" cy="59.13" r="2.15"/><path fill="#fff" d="M102.1 59.48c-.38-.38-.05-1.32.33-1.7.38-.38 1.32-.71 1.7-.33.38.38-1.65 2.41-2.03 2.03z"/><circle fill="#D5CEA9" cx="39.76" cy="59.13" r="2.15"/><path fill="#fff" d="M38.04 59.48c-.38-.38-.05-1.32.33-1.7s1.32-.71 1.7-.33c.38.38-1.65 2.41-2.03 2.03z"/><circle fill="#D5CEA9" cx="35.24" cy="59.13" r="2.15"/><path fill="#fff" d="M33.52 59.48c-.38-.38-.05-1.32.33-1.7.38-.38 1.32-.71 1.7-.33.38.38-1.65 2.41-2.03 2.03z"/><circle fill="#D5CEA9" cx="57.58" cy="59.13" r="2.15"/><path fill="#fff" d="M55.86 59.48c-.38-.38-.05-1.32.33-1.7.38-.38 1.32-.71 1.7-.33.38.38-1.65 2.41-2.03 2.03z"/><circle fill="#D5CEA9" cx="62.22" cy="59.13" r="2.15"/><path fill="#fff" d="M60.51 59.48c-.38-.38-.05-1.32.33-1.7s1.32-.71 1.7-.33c.37.38-1.66 2.41-2.03 2.03z"/><circle fill="#D5CEA9" cx="66.88" cy="59.13" r="2.15"/><path fill="#fff" d="M65.16 59.48c-.38-.38-.05-1.32.33-1.7.38-.38 1.32-.71 1.7-.33.38.38-1.65 2.41-2.03 2.03z"/><circle fill="#E84849" cx="77" cy="65.68" r="2.15"/><path fill="#fff" d="M75.28 66.03c-.38-.38-.05-1.32.33-1.7.38-.38 1.32-.71 1.7-.33.38.38-1.65 2.41-2.03 2.03z"/><circle fill="#E84849" cx="72.3" cy="65.68" r="2.15"/><path fill="#fff" d="M70.59 66.03c-.38-.38-.05-1.32.33-1.7s1.32-.71 1.7-.33c.38.38-1.65 2.41-2.03 2.03z"/><circle fill="#E84849" cx="81.49" cy="65.68" r="2.15"/><path fill="#fff" d="M79.77 66.03c-.38-.38-.05-1.32.33-1.7s1.32-.71 1.7-.33c.38.38-1.65 2.41-2.03 2.03z"/><circle fill="#E84849" cx="85.93" cy="65.68" r="2.15"/><path fill="#fff" d="M84.21 66.03c-.38-.38-.05-1.32.33-1.7s1.32-.71 1.7-.33c.38.38-1.65 2.41-2.03 2.03z"/><circle fill="#E84849" cx="103.82" cy="65.68" r="2.15"/><path fill="#fff" d="M102.1 66.03c-.38-.38-.05-1.32.33-1.7.38-.38 1.32-.71 1.7-.33.38.38-1.65 2.41-2.03 2.03z"/><circle fill="#D5CEA9" cx="39.76" cy="65.68" r="2.15"/><path fill="#fff" d="M38.04 66.03c-.38-.38-.05-1.32.33-1.7s1.32-.71 1.7-.33c.38.38-1.65 2.41-2.03 2.03z"/><circle fill="#D5CEA9" cx="35.24" cy="65.68" r="2.15"/><path fill="#fff" d="M33.52 66.03c-.38-.38-.05-1.32.33-1.7.38-.38 1.32-.71 1.7-.33.38.38-1.65 2.41-2.03 2.03z"/><circle fill="#D5CEA9" cx="57.84" cy="65.68" r="2.15"/><path fill="#fff" d="M56.12 66.03c-.38-.38-.05-1.32.33-1.7.38-.38 1.32-.71 1.7-.33.37.38-1.65 2.41-2.03 2.03z"/><circle fill="#D5CEA9" cx="62.48" cy="65.68" r="2.15"/><path fill="#fff" d="M60.76 66.03c-.38-.38-.05-1.32.33-1.7s1.32-.71 1.7-.33c.38.38-1.65 2.41-2.03 2.03z"/><circle fill="#D5CEA9" cx="67.14" cy="65.68" r="2.15"/><path fill="#fff" d="M65.42 66.03c-.38-.38-.05-1.32.33-1.7.38-.38 1.32-.71 1.7-.33.38.38-1.65 2.41-2.03 2.03z"/><circle fill="#E84849" cx="39.98" cy="72.55" r="2.15"/><path fill="#fff" d="M38.27 72.9c-.38-.38-.05-1.32.33-1.7.38-.38 1.32-.71 1.7-.33.37.38-1.65 2.4-2.03 2.03z"/><circle fill="#E84849" cx="35.29" cy="72.55" r="2.15"/><path fill="#fff" d="M33.57 72.9c-.38-.38-.05-1.32.33-1.7.38-.38 1.32-.71 1.7-.33.38.38-1.65 2.4-2.03 2.03z"/><circle fill="#E84849" cx="58.59" cy="72.55" r="2.15"/><path fill="#fff" d="M56.88 72.9c-.38-.38-.05-1.32.33-1.7.38-.38 1.32-.71 1.7-.33.37.38-1.66 2.4-2.03 2.03z"/><circle fill="#E84849" cx="63.03" cy="72.55" r="2.15"/><path fill="#fff" d="M61.32 72.9c-.38-.38-.05-1.32.33-1.7.38-.38 1.32-.71 1.7-.33.37.38-1.66 2.4-2.03 2.03z"/><circle fill="#E84849" cx="67.57" cy="72.55" r="2.15"/><path fill="#fff" d="M65.85 72.9c-.38-.38-.05-1.32.33-1.7.38-.38 1.32-.71 1.7-.33.38.38-1.65 2.4-2.03 2.03z"/><circle fill="#D5CEA9" cx="89.94" cy="72.49" r="2.15"/><path fill="#fff" d="M88.22 72.84c-.38-.38-.05-1.32.33-1.7.38-.38 1.32-.71 1.7-.33.38.38-1.65 2.41-2.03 2.03z"/><circle fill="#D5CEA9" cx="85.42" cy="72.49" r="2.15"/><path fill="#fff" d="M83.7 72.84c-.38-.38-.05-1.32.33-1.7s1.32-.71 1.7-.33c.38.38-1.65 2.41-2.03 2.03z"/><circle fill="#D5CEA9" cx="94.59" cy="72.49" r="2.15"/><path fill="#fff" d="M92.87 72.84c-.38-.38-.05-1.32.33-1.7.38-.38 1.32-.71 1.7-.33.38.38-1.65 2.41-2.03 2.03z"/><circle fill="#D5CEA9" cx="99.24" cy="72.49" r="2.15"/><path fill="#fff" d="M97.52 72.84c-.38-.38-.05-1.32.33-1.7s1.32-.71 1.7-.33c.38.38-1.65 2.41-2.03 2.03z"/><circle fill="#D5CEA9" cx="103.89" cy="72.49" r="2.15"/><path fill="#fff" d="M102.18 72.84c-.38-.38-.05-1.32.33-1.7.38-.38 1.32-.71 1.7-.33.37.38-1.66 2.41-2.03 2.03z"/><circle fill="#E84849" cx="39.98" cy="79.1" r="2.15"/><path fill="#fff" d="M38.27 79.44c-.38-.38-.05-1.32.33-1.7.38-.38 1.32-.71 1.7-.33.37.38-1.65 2.41-2.03 2.03z"/><circle fill="#E84849" cx="35.29" cy="79.1" r="2.15"/><path fill="#fff" d="M33.57 79.44c-.38-.38-.05-1.32.33-1.7.38-.38 1.32-.71 1.7-.33.38.38-1.65 2.41-2.03 2.03z"/><circle fill="#E84849" cx="58.59" cy="79.1" r="2.15"/><path fill="#fff" d="M56.88 79.44c-.38-.38-.05-1.32.33-1.7.38-.38 1.32-.71 1.7-.33.37.38-1.66 2.41-2.03 2.03z"/><circle fill="#E84849" cx="63.03" cy="79.1" r="2.15"/><path fill="#fff" d="M61.32 79.44c-.38-.38-.05-1.32.33-1.7.38-.38 1.32-.71 1.7-.33.37.38-1.66 2.41-2.03 2.03z"/><circle fill="#E84849" cx="67.57" cy="79.1" r="2.15"/><path fill="#fff" d="M65.85 79.44c-.38-.38-.05-1.32.33-1.7.38-.38 1.32-.71 1.7-.33.38.38-1.65 2.41-2.03 2.03z"/><circle fill="#D5CEA9" cx="77.06" cy="79.04" r="2.15"/><path fill="#fff" d="M75.34 79.38c-.38-.38-.05-1.32.33-1.7.38-.38 1.32-.71 1.7-.33.38.38-1.65 2.41-2.03 2.03z"/><circle fill="#D5CEA9" cx="72.54" cy="79.04" r="2.15"/><path fill="#fff" d="M70.82 79.38c-.38-.38-.05-1.32.33-1.7s1.32-.71 1.7-.33c.38.38-1.65 2.41-2.03 2.03z"/><circle fill="#D5CEA9" cx="81.71" cy="79.04" r="2.15"/><path fill="#fff" d="M80 79.38c-.38-.38-.05-1.32.33-1.7s1.32-.71 1.7-.33c.37.38-1.66 2.41-2.03 2.03z"/><circle fill="#D5CEA9" cx="86.36" cy="79.04" r="2.15"/><path fill="#fff" d="M84.64 79.38c-.38-.38-.05-1.32.33-1.7s1.32-.71 1.7-.33c.38.38-1.65 2.41-2.03 2.03z"/><circle fill="#D5CEA9" cx="103.89" cy="79.04" r="2.15"/><path fill="#fff" d="M102.18 79.38c-.38-.38-.05-1.32.33-1.7.38-.38 1.32-.71 1.7-.33.37.38-1.66 2.41-2.03 2.03z"/><circle fill="#E84849" cx="39.98" cy="86.14" r="2.15"/><path fill="#fff" d="M38.27 86.49c-.38-.38-.05-1.32.33-1.7.38-.38 1.32-.71 1.7-.33.37.38-1.65 2.41-2.03 2.03z"/><circle fill="#E84849" cx="35.29" cy="86.14" r="2.15"/><path fill="#fff" d="M33.57 86.49c-.38-.38-.05-1.32.33-1.7.38-.38 1.32-.71 1.7-.33.38.38-1.65 2.41-2.03 2.03z"/><circle fill="#E84849" cx="58.59" cy="86.14" r="2.15"/><path fill="#fff" d="M56.88 86.49c-.38-.38-.05-1.32.33-1.7.38-.38 1.32-.71 1.7-.33.37.38-1.66 2.41-2.03 2.03z"/><circle fill="#E84849" cx="63.03" cy="86.14" r="2.15"/><path fill="#fff" d="M61.32 86.49c-.38-.38-.05-1.32.33-1.7.38-.38 1.32-.71 1.7-.33.37.38-1.66 2.41-2.03 2.03z"/><circle fill="#E84849" cx="67.57" cy="86.14" r="2.15"/><path fill="#fff" d="M65.85 86.49c-.38-.38-.05-1.32.33-1.7.38-.38 1.32-.71 1.7-.33.38.38-1.65 2.41-2.03 2.03z"/><circle fill="#D5CEA9" cx="89.94" cy="86.08" r="2.15"/><path fill="#fff" d="M88.22 86.43c-.38-.38-.05-1.32.33-1.7.38-.38 1.32-.71 1.7-.33.38.38-1.65 2.41-2.03 2.03z"/><circle fill="#D5CEA9" cx="72.25" cy="86.08" r="2.15"/><path fill="#fff" d="M70.54 86.43c-.38-.38-.05-1.32.33-1.7.38-.38 1.32-.71 1.7-.33.37.38-1.65 2.41-2.03 2.03z"/><circle fill="#D5CEA9" cx="94.59" cy="86.08" r="2.15"/><path fill="#fff" d="M92.87 86.43c-.38-.38-.05-1.32.33-1.7.38-.38 1.32-.71 1.7-.33.38.38-1.65 2.41-2.03 2.03z"/><circle fill="#D5CEA9" cx="99.24" cy="86.08" r="2.15"/><path fill="#fff" d="M97.52 86.43c-.38-.38-.05-1.32.33-1.7s1.32-.71 1.7-.33c.38.38-1.65 2.41-2.03 2.03z"/><circle fill="#D5CEA9" cx="103.89" cy="86.08" r="2.15"/><path fill="#fff" d="M102.18 86.43c-.38-.38-.05-1.32.33-1.7.38-.38 1.32-.71 1.7-.33.37.38-1.66 2.41-2.03 2.03z"/><circle fill="#E84849" cx="55.82" cy="92.69" r="2.15"/><path fill="#fff" d="M54.1 93.04c-.38-.38-.05-1.32.33-1.7.38-.38 1.32-.71 1.7-.33.38.38-1.65 2.41-2.03 2.03z"/><circle fill="#E84849" cx="51.13" cy="92.69" r="2.15"/><path fill="#fff" d="M49.41 93.04c-.38-.38-.05-1.32.33-1.7.38-.38 1.32-.71 1.7-.33.38.38-1.65 2.41-2.03 2.03z"/><circle fill="#E84849" cx="60.31" cy="92.69" r="2.15"/><path fill="#fff" d="M58.59 93.04c-.38-.38-.05-1.32.33-1.7.38-.38 1.32-.71 1.7-.33.38.38-1.65 2.41-2.03 2.03z"/><circle fill="#E84849" cx="64.75" cy="92.69" r="2.15"/><path fill="#fff" d="M63.03 93.04c-.38-.38-.05-1.32.33-1.7.38-.38 1.32-.71 1.7-.33.38.38-1.65 2.41-2.03 2.03z"/><circle fill="#E84849" cx="69.28" cy="92.69" r="2.15"/><path fill="#fff" d="M67.57 93.04c-.38-.38-.05-1.32.33-1.7.38-.38 1.32-.71 1.7-.33.37.38-1.66 2.41-2.03 2.03z"/><circle fill="#D5CEA9" cx="78.97" cy="92.63" r="2.15"/><path fill="#fff" d="M77.25 92.98c-.38-.38-.05-1.32.33-1.7.38-.38 1.32-.71 1.7-.33.38.38-1.65 2.41-2.03 2.03z"/><circle fill="#D5CEA9" cx="73.97" cy="92.63" r="2.15"/><path fill="#fff" d="M72.25 92.98c-.38-.38-.05-1.32.33-1.7s1.32-.71 1.7-.33c.38.38-1.65 2.41-2.03 2.03z"/><circle fill="#D5CEA9" cx="94.59" cy="92.63" r="2.15"/><path fill="#fff" d="M92.87 92.98c-.38-.38-.05-1.32.33-1.7.38-.38 1.32-.71 1.7-.33.38.38-1.65 2.41-2.03 2.03z"/><circle fill="#D5CEA9" cx="99.24" cy="92.63" r="2.15"/><path fill="#fff" d="M97.52 92.98c-.38-.38-.05-1.32.33-1.7s1.32-.71 1.7-.33c.38.38-1.65 2.41-2.03 2.03z"/><circle fill="#D5CEA9" cx="103.89" cy="92.63" r="2.15"/><path fill="#fff" d="M102.18 92.98c-.38-.38-.05-1.32.33-1.7.38-.38 1.32-.71 1.7-.33.37.38-1.66 2.41-2.03 2.03z"/><circle fill="#E84849" cx="39.98" cy="99.18" r="2.15"/><path fill="#fff" d="M38.27 99.52c-.38-.38-.05-1.32.33-1.7.38-.38 1.32-.71 1.7-.33.37.38-1.65 2.41-2.03 2.03z"/><circle fill="#E84849" cx="35.29" cy="99.18" r="2.15"/><path fill="#fff" d="M33.57 99.52c-.38-.38-.05-1.32.33-1.7s1.32-.71 1.7-.33c.38.38-1.65 2.41-2.03 2.03z"/><circle fill="#E84849" cx="44.47" cy="99.18" r="2.15"/><path fill="#fff" d="M42.76 99.52c-.38-.38-.05-1.32.33-1.7s1.32-.71 1.7-.33c.37.38-1.66 2.41-2.03 2.03z"/><circle fill="#E84849" cx="65.08" cy="99.18" r="2.15"/><path fill="#fff" d="M63.37 99.52c-.38-.38-.05-1.32.33-1.7s1.32-.71 1.7-.33c.37.38-1.65 2.41-2.03 2.03z"/><circle fill="#E84849" cx="69.62" cy="99.18" r="2.15"/><path fill="#fff" d="M67.9 99.52c-.38-.38-.05-1.32.33-1.7.38-.38 1.32-.71 1.7-.33.38.38-1.65 2.41-2.03 2.03z"/><circle fill="#D5CEA9" cx="89.94" cy="99.12" r="2.15"/><path fill="#fff" d="M88.22 99.47c-.38-.38-.05-1.32.33-1.7.38-.38 1.32-.71 1.7-.33.38.37-1.65 2.4-2.03 2.03z"/><circle fill="#D5CEA9" cx="74.73" cy="99.12" r="2.15"/><path fill="#fff" d="M73.02 99.47c-.38-.38-.05-1.32.33-1.7s1.32-.71 1.7-.33c.37.37-1.66 2.4-2.03 2.03z"/><circle fill="#D5CEA9" cx="94.59" cy="99.12" r="2.15"/><path fill="#fff" d="M92.87 99.47c-.38-.38-.05-1.32.33-1.7.38-.38 1.32-.71 1.7-.33.38.37-1.65 2.4-2.03 2.03z"/><circle fill="#D5CEA9" cx="99.24" cy="99.12" r="2.15"/><path fill="#fff" d="M97.52 99.47c-.38-.38-.05-1.32.33-1.7s1.32-.71 1.7-.33c.38.37-1.65 2.4-2.03 2.03z"/><circle fill="#D5CEA9" cx="103.89" cy="99.12" r="2.15"/><path fill="#fff" d="M102.18 99.47c-.38-.38-.05-1.32.33-1.7.38-.38 1.32-.71 1.7-.33.37.37-1.66 2.4-2.03 2.03z"/></symbol><symbol id="icon-design" viewBox="0 0 136.91 136.91"><circle fill="#22C48A" cx="68.46" cy="68.46" r="63.33"/><path fill="#81BCB9" d="M47.24 98.28c-1.37 0-2.6-.55-3.5-1.44.9.92 2.16 1.48 3.55 1.48h1.07l-.02-.04h-1.1z"/><path fill="#8AC5C4" d="M50.89 98.28h-2.56l.02.05h2.58z"/><path fill="#EDC92C" d="M103.75 69.51l-3.76-6.67c-.23.99-.76 1.91-1.58 2.63l-8.54 7.37-20.29 17.48-2.24 5.41 34.5-19.42c.72-.41 1.29-.98 1.71-1.63.99-1.51 1.14-3.49.2-5.17z"/><path fill="#94D0D0" d="M54.71 98.28h-3.82l.04.05h3.89z"/><path fill="#F37C2A" d="M98.93 58.42L88.79 46.67c-.66-.77-1.52-1.28-2.43-1.54.65 1.26.79 2.78.2 4.2l-3.41 8.24-6.32 15.26-9.09 22.3 29.88-28.87-.2.06.99-.85c.83-.71 1.35-1.64 1.58-2.62.36-1.52.03-3.16-1.06-4.43z"/><path fill="#ED3351" d="M103.55 74.68c-.42.65-.99 1.22-1.71 1.63L67.35 95.73l-.38.21c-.87 1.38-2.39 2.31-4.15 2.34l-.09.05H99.7c2.76 0 4.99-2.23 4.99-4.99V77.82c.01-1.2-.43-2.28-1.14-3.14z"/><path fill="#A0D5D9" d="M60.35 98.28l-.05.05h2.43l.09-.05c-.02 0-.04.01-.07.01h-2.4zM54.71 98.28l.11.05h5.48l.05-.05z"/><path fill="#357180" d="M86.36 45.13c-.52-1.01-1.37-1.86-2.5-2.33l-14.34-5.93c-1.27-.53-2.63-.49-3.81 0 1.23.91 2.03 2.36 2.03 4v52.42c0 .98-.29 1.88-.78 2.65l.38-.21 2.03-4.9.12-.08 7.34-17.92 6.32-15.26 3.41-8.24c.59-1.42.46-2.94-.2-4.2z"/><path fill="#B3DCE2" d="M42.29 88.31l-.04-.05v5.04c0 1.39.57 2.65 1.49 3.55-.89-.9-1.44-2.14-1.44-3.51v-5.03zM42.29 80.95v-.76l-.04.04V81c.01-.02.02-.03.04-.05zM42.29 87.56l-.05-.08v.78l.05.05zM42.24 81v6.48l.05.08v-6.61l-.05.05zM42.8 88.47c-.03.11-.07.21-.1.32l.8.92-.7-1.24z"/><path fill="#1FA85B" d="M65.71 36.87c-.83-.61-1.85-.99-2.96-.99H47.24c-2.76 0-4.99 2.23-4.99 4.99v39.36l.05-.04V93.34c0 1.37.55 2.61 1.44 3.51.9.89 2.14 1.44 3.5 1.44h15.51c.03 0 .05-.01.07-.01 1.75-.02 3.28-.95 4.15-2.33.49-.77.78-1.67.78-2.65V40.87c-.01-1.65-.81-3.09-2.04-4z"/><circle fill="#81BCB9" cx="61.58" cy="92.54" r="3.17"/></symbol><symbol id="icon-opensource" viewBox="0 0 136.914 136.913"><circle fill="#DBF0F4" cx="68.457" cy="68.454" r="63.333"/><path fill="#67B8CB" d="M106.82 55.884c-11.218 0-20.313 6.922-20.313 15.453 0 2.84 1.023 5.488 2.775 7.772l-2.71 9.105L97.88 85.2c2.7 1.01 5.727 1.59 8.94 1.59 11.218 0 20.312-6.917 20.312-15.454 0-8.53-9.094-15.452-20.313-15.452z"/><circle fill="#B7CAC4" cx="114.06" cy="70.61" r="2.471"/><circle fill="#B7CAC4" cx="106.317" cy="70.61" r="2.471"/><circle fill="#B7CAC4" cx="98.74" cy="70.61" r="2.472"/><path fill="#67B8CB" d="M80.57 21.884c-11.218 0-20.313 6.922-20.313 15.453 0 2.84 1.268 6.097 2.775 7.772 3.12 3.47 7.62 5.22 7.62 5.22l1.75 11.75 8.17-9.288c11.218 0 20.312-6.918 20.312-15.455 0-8.53-9.094-15.453-20.313-15.453z"/><circle fill="#B7CAC4" cx="87.81" cy="36.61" r="2.471"/><circle fill="#B7CAC4" cx="80.067" cy="36.61" r="2.471"/><circle fill="#B7CAC4" cx="72.49" cy="36.61" r="2.472"/><path fill="#67B8CB" d="M33.82 43.384c11.218 0 20.313 6.922 20.313 15.453 0 2.84-1.023 5.488-2.773 7.772l2.71 9.105L42.757 72.7c-2.7 1.01-5.725 1.59-8.94 1.59-11.218 0-20.312-6.917-20.312-15.454 0-8.53 9.095-15.452 20.313-15.452z"/><circle fill="#B7CAC4" cx="26.581" cy="58.11" r="2.471"/><circle fill="#B7CAC4" cx="34.324" cy="58.11" r="2.472"/><circle fill="#B7CAC4" cx="41.901" cy="58.11" r="2.471"/><path fill="#36858D" d="M76.61 109.318c0-3.816-.383-6.103-.383-6.103s4.96-6.867 5.34-16.404c0-1.515.744-12.27-12.205-12.758v-.018c-.03.002-.06.01-.096.01-.03 0-.06-.008-.096-.01v.018c-12.945.486-12.205 11.243-12.205 12.76.38 9.536 5.34 16.403 5.34 16.403s-.383 2.286-.383 6.103c-20.594 4.957-23.457 11.824-23.457 11.824v3.01c8.975 4.874 19.256 7.642 30.186 7.642 11.437 0 22.155-3.047 31.417-8.35v-2.302s-2.86-6.867-23.457-11.824z"/></symbol></svg>