<svg xmlns="http://www.w3.org/2000/svg" width="136.91" height="136.91" viewBox="0 0 136.91 136.91" enable-background="new 0 0 136.914 136.913"><circle fill="#344E5D" cx="68.46" cy="68.46" r="63.33"/><path fill="#CDCCCB" d="M110.07 39.38c0 .42-.34.76-.76.76H30.12c-.42 0-.76-.34-.76-.76s.34-.76.76-.76h79.18c.43 0 .77.34.77.76z"/><circle fill="#E84849" cx="90.36" cy="39.38" r="2.15"/><path fill="#fff" d="M88.64 39.73c-.38-.38-.05-1.32.33-1.7.38-.38 1.32-.71 1.7-.33.38.38-1.65 2.41-2.03 2.03z"/><circle fill="#E84849" cx="85.66" cy="39.38" r="2.15"/><path fill="#fff" d="M83.94 39.73c-.38-.38-.05-1.32.33-1.7.38-.38 1.32-.71 1.7-.33.38.38-1.65 2.41-2.03 2.03z"/><circle fill="#E84849" cx="94.85" cy="39.38" r="2.15"/><path fill="#fff" d="M93.13 39.73c-.38-.38-.05-1.32.33-1.7.38-.38 1.32-.71 1.7-.33.37.38-1.65 2.41-2.03 2.03z"/><circle fill="#E84849" cx="99.29" cy="39.38" r="2.15"/><path fill="#fff" d="M97.57 39.73c-.38-.38-.05-1.32.33-1.7.38-.38 1.32-.71 1.7-.33.38.38-1.65 2.41-2.03 2.03z"/><circle fill="#E84849" cx="103.82" cy="39.38" r="2.15"/><path fill="#fff" d="M102.1 39.73c-.38-.38-.05-1.32.33-1.7.38-.38 1.32-.71 1.7-.33.38.38-1.65 2.41-2.03 2.03z"/><circle fill="#D5CEA9" cx="39.76" cy="39.38" r="2.15"/><path fill="#fff" d="M38.04 39.73c-.38-.38-.05-1.32.33-1.7.38-.38 1.32-.71 1.7-.33.38.38-1.65 2.41-2.03 2.03z"/><circle fill="#D5CEA9" cx="35.24" cy="39.38" r="2.15"/><path fill="#fff" d="M33.52 39.73c-.38-.38-.05-1.32.33-1.7.38-.38 1.32-.71 1.7-.33.38.38-1.65 2.41-2.03 2.03z"/><circle fill="#D5CEA9" cx="44.41" cy="39.38" r="2.15"/><path fill="#fff" d="M42.69 39.73c-.38-.38-.05-1.32.33-1.7.38-.38 1.32-.71 1.7-.33.38.38-1.65 2.41-2.03 2.03z"/><circle fill="#D5CEA9" cx="49.06" cy="39.38" r="2.15"/><path fill="#fff" d="M47.34 39.73c-.38-.38-.05-1.32.33-1.7.38-.38 1.32-.71 1.7-.33.38.38-1.65 2.41-2.03 2.03z"/><circle fill="#D5CEA9" cx="53.71" cy="39.38" r="2.15"/><path fill="#fff" d="M52 39.73c-.38-.38-.05-1.32.33-1.7.38-.38 1.32-.71 1.7-.33.37.38-1.66 2.41-2.03 2.03z"/><path fill="#CDCCCB" d="M110.07 46.36c0 .42-.34.76-.76.76H30.12c-.42 0-.76-.34-.76-.76s.34-.76.76-.76h79.18c.43 0 .77.34.77.76zM110.07 52.95c0 .42-.34.76-.76.76H30.12c-.42 0-.76-.34-.76-.76s.34-.76.76-.76h79.18c.43-.01.77.33.77.76zM110.07 59.32c0 .42-.34.76-.76.76H30.12c-.42 0-.76-.34-.76-.76s.34-.76.76-.76h79.18c.43 0 .77.34.77.76zM110.07 65.76c0 .42-.34.76-.76.76H30.12c-.42 0-.76-.34-.76-.76s.34-.76.76-.76h79.18c.43 0 .77.34.77.76zM110.07 72.63c0 .42-.34.76-.76.76H30.12c-.42 0-.76-.34-.76-.76s.34-.76.76-.76h79.18c.43 0 .77.34.77.76zM110.07 79.23c0 .42-.34.76-.76.76H30.12c-.42 0-.76-.34-.76-.76s.34-.76.76-.76h79.18c.43 0 .77.34.77.76zM110.07 86.21c0 .42-.34.76-.76.76H30.12c-.42 0-.76-.34-.76-.76s.34-.76.76-.76h79.18c.43 0 .77.34.77.76zM110.07 92.8c0 .42-.34.76-.76.76H30.12c-.42 0-.76-.34-.76-.76s.34-.76.76-.76h79.18c.43-.01.77.33.77.76zM110.07 99.17c0 .42-.34.76-.76.76H30.12c-.42 0-.76-.34-.76-.76s.34-.76.76-.76h79.18c.43 0 .77.34.77.76z"/><path fill="#B58755" d="M32.41 99.3c0 1.26-1.02 2.29-2.29 2.29s-2.29-1.02-2.29-2.29V36.71c0-1.26 1.02-2.29 2.29-2.29 1.26 0 2.29 1.02 2.29 2.29V99.3zM110.83 99.3c0 1.26-1.02 2.29-2.29 2.29-1.26 0-2.29-1.02-2.29-2.29V36.71c0-1.26 1.02-2.29 2.29-2.29 1.26 0 2.29 1.02 2.29 2.29V99.3z"/><circle fill="#E84849" cx="77.19" cy="46.25" r="2.15"/><path fill="#fff" d="M75.47 46.6c-.38-.38-.05-1.32.33-1.7.38-.38 1.32-.71 1.7-.33.38.38-1.65 2.41-2.03 2.03z"/><circle fill="#E84849" cx="72.5" cy="46.25" r="2.15"/><path fill="#fff" d="M70.78 46.6c-.38-.38-.05-1.32.33-1.7.38-.38 1.32-.71 1.7-.33.38.38-1.65 2.41-2.03 2.03z"/><circle fill="#E84849" cx="94.85" cy="46.25" r="2.15"/><path fill="#fff" d="M93.13 46.6c-.38-.38-.05-1.32.33-1.7.38-.38 1.32-.71 1.7-.33.37.38-1.65 2.41-2.03 2.03z"/><circle fill="#E84849" cx="99.29" cy="46.25" r="2.15"/><path fill="#fff" d="M97.57 46.6c-.38-.38-.05-1.32.33-1.7.38-.38 1.32-.71 1.7-.33.38.38-1.65 2.41-2.03 2.03z"/><circle fill="#E84849" cx="103.82" cy="46.25" r="2.15"/><path fill="#fff" d="M102.1 46.6c-.38-.38-.05-1.32.33-1.7.38-.38 1.32-.71 1.7-.33.38.38-1.65 2.41-2.03 2.03z"/><circle fill="#D5CEA9" cx="39.76" cy="46.25" r="2.15"/><path fill="#fff" d="M38.04 46.6c-.38-.38-.05-1.32.33-1.7.38-.38 1.32-.71 1.7-.33.38.38-1.65 2.41-2.03 2.03z"/><circle fill="#D5CEA9" cx="35.24" cy="46.25" r="2.15"/><path fill="#fff" d="M33.52 46.6c-.38-.38-.05-1.32.33-1.7.38-.38 1.32-.71 1.7-.33.38.38-1.65 2.41-2.03 2.03z"/><circle fill="#D5CEA9" cx="44.41" cy="46.25" r="2.15"/><path fill="#fff" d="M42.69 46.6c-.38-.38-.05-1.32.33-1.7.38-.38 1.32-.71 1.7-.33.38.38-1.65 2.41-2.03 2.03z"/><circle fill="#D5CEA9" cx="49.06" cy="46.25" r="2.15"/><path fill="#fff" d="M47.34 46.6c-.38-.38-.05-1.32.33-1.7.38-.38 1.32-.71 1.7-.33.38.38-1.65 2.41-2.03 2.03z"/><circle fill="#D5CEA9" cx="67.45" cy="46.25" r="2.15"/><path fill="#fff" d="M65.73 46.6c-.38-.38-.05-1.32.33-1.7.38-.38 1.32-.71 1.7-.33.38.38-1.65 2.41-2.03 2.03z"/><circle fill="#E84849" cx="76.62" cy="52.8" r="2.15"/><path fill="#fff" d="M74.9 53.15c-.38-.38-.05-1.32.33-1.7s1.32-.71 1.7-.33c.38.38-1.65 2.41-2.03 2.03z"/><circle fill="#E84849" cx="71.92" cy="52.8" r="2.15"/><path fill="#fff" d="M70.21 53.15c-.38-.38-.05-1.32.33-1.7s1.32-.71 1.7-.33c.37.38-1.66 2.41-2.03 2.03z"/><circle fill="#E84849" cx="94.85" cy="52.8" r="2.15"/><path fill="#fff" d="M93.13 53.15c-.38-.38-.05-1.32.33-1.7s1.32-.71 1.7-.33c.37.38-1.65 2.41-2.03 2.03z"/><circle fill="#E84849" cx="99.29" cy="52.8" r="2.15"/><path fill="#fff" d="M97.57 53.15c-.38-.38-.05-1.32.33-1.7s1.32-.71 1.7-.33c.38.38-1.65 2.41-2.03 2.03z"/><circle fill="#E84849" cx="103.82" cy="52.8" r="2.15"/><path fill="#fff" d="M102.1 53.15c-.38-.38-.05-1.32.33-1.7.38-.38 1.32-.71 1.7-.33.38.38-1.65 2.41-2.03 2.03z"/><circle fill="#D5CEA9" cx="53.11" cy="52.99" r="2.15"/><path fill="#fff" d="M51.4 53.34c-.38-.38-.05-1.32.33-1.7.38-.38 1.32-.71 1.7-.33.37.38-1.66 2.41-2.03 2.03z"/><circle fill="#D5CEA9" cx="48.6" cy="52.99" r="2.15"/><path fill="#fff" d="M46.88 53.34c-.38-.38-.05-1.32.33-1.7.38-.38 1.32-.71 1.7-.33.38.38-1.65 2.41-2.03 2.03z"/><circle fill="#D5CEA9" cx="57.77" cy="52.8" r="2.15"/><path fill="#fff" d="M56.05 53.15c-.38-.38-.05-1.32.33-1.7s1.32-.71 1.7-.33c.38.38-1.65 2.41-2.03 2.03z"/><circle fill="#D5CEA9" cx="62.41" cy="52.8" r="2.15"/><path fill="#fff" d="M60.69 53.15c-.38-.38-.05-1.32.33-1.7s1.32-.71 1.7-.33c.38.38-1.65 2.41-2.03 2.03z"/><circle fill="#D5CEA9" cx="67.07" cy="52.8" r="2.15"/><path fill="#fff" d="M65.35 53.15c-.38-.38-.05-1.32.33-1.7.38-.38 1.32-.71 1.7-.33.38.38-1.65 2.41-2.03 2.03z"/><circle fill="#E84849" cx="90.36" cy="59.13" r="2.15"/><path fill="#fff" d="M88.64 59.48c-.38-.38-.05-1.32.33-1.7.38-.38 1.32-.71 1.7-.33.38.38-1.65 2.41-2.03 2.03z"/><circle fill="#E84849" cx="71.73" cy="59.13" r="2.15"/><path fill="#fff" d="M70.02 59.48c-.38-.38-.05-1.32.33-1.7.38-.38 1.32-.71 1.7-.33.37.38-1.66 2.41-2.03 2.03z"/><circle fill="#E84849" cx="94.85" cy="59.13" r="2.15"/><path fill="#fff" d="M93.13 59.48c-.38-.38-.05-1.32.33-1.7s1.32-.71 1.7-.33c.37.38-1.65 2.41-2.03 2.03z"/><circle fill="#E84849" cx="99.29" cy="59.13" r="2.15"/><path fill="#fff" d="M97.57 59.48c-.38-.38-.05-1.32.33-1.7s1.32-.71 1.7-.33c.38.38-1.65 2.41-2.03 2.03z"/><circle fill="#E84849" cx="103.82" cy="59.13" r="2.15"/><path fill="#fff" d="M102.1 59.48c-.38-.38-.05-1.32.33-1.7.38-.38 1.32-.71 1.7-.33.38.38-1.65 2.41-2.03 2.03z"/><circle fill="#D5CEA9" cx="39.76" cy="59.13" r="2.15"/><path fill="#fff" d="M38.04 59.48c-.38-.38-.05-1.32.33-1.7s1.32-.71 1.7-.33c.38.38-1.65 2.41-2.03 2.03z"/><circle fill="#D5CEA9" cx="35.24" cy="59.13" r="2.15"/><path fill="#fff" d="M33.52 59.48c-.38-.38-.05-1.32.33-1.7.38-.38 1.32-.71 1.7-.33.38.38-1.65 2.41-2.03 2.03z"/><circle fill="#D5CEA9" cx="57.58" cy="59.13" r="2.15"/><path fill="#fff" d="M55.86 59.48c-.38-.38-.05-1.32.33-1.7.38-.38 1.32-.71 1.7-.33.38.38-1.65 2.41-2.03 2.03z"/><circle fill="#D5CEA9" cx="62.22" cy="59.13" r="2.15"/><path fill="#fff" d="M60.51 59.48c-.38-.38-.05-1.32.33-1.7s1.32-.71 1.7-.33c.37.38-1.66 2.41-2.03 2.03z"/><circle fill="#D5CEA9" cx="66.88" cy="59.13" r="2.15"/><path fill="#fff" d="M65.16 59.48c-.38-.38-.05-1.32.33-1.7.38-.38 1.32-.71 1.7-.33.38.38-1.65 2.41-2.03 2.03z"/><circle fill="#E84849" cx="77" cy="65.68" r="2.15"/><path fill="#fff" d="M75.28 66.03c-.38-.38-.05-1.32.33-1.7.38-.38 1.32-.71 1.7-.33.38.38-1.65 2.41-2.03 2.03z"/><circle fill="#E84849" cx="72.3" cy="65.68" r="2.15"/><path fill="#fff" d="M70.59 66.03c-.38-.38-.05-1.32.33-1.7s1.32-.71 1.7-.33c.38.38-1.65 2.41-2.03 2.03z"/><circle fill="#E84849" cx="81.49" cy="65.68" r="2.15"/><path fill="#fff" d="M79.77 66.03c-.38-.38-.05-1.32.33-1.7s1.32-.71 1.7-.33c.38.38-1.65 2.41-2.03 2.03z"/><circle fill="#E84849" cx="85.93" cy="65.68" r="2.15"/><path fill="#fff" d="M84.21 66.03c-.38-.38-.05-1.32.33-1.7s1.32-.71 1.7-.33c.38.38-1.65 2.41-2.03 2.03z"/><circle fill="#E84849" cx="103.82" cy="65.68" r="2.15"/><path fill="#fff" d="M102.1 66.03c-.38-.38-.05-1.32.33-1.7.38-.38 1.32-.71 1.7-.33.38.38-1.65 2.41-2.03 2.03z"/><circle fill="#D5CEA9" cx="39.76" cy="65.68" r="2.15"/><path fill="#fff" d="M38.04 66.03c-.38-.38-.05-1.32.33-1.7s1.32-.71 1.7-.33c.38.38-1.65 2.41-2.03 2.03z"/><circle fill="#D5CEA9" cx="35.24" cy="65.68" r="2.15"/><path fill="#fff" d="M33.52 66.03c-.38-.38-.05-1.32.33-1.7.38-.38 1.32-.71 1.7-.33.38.38-1.65 2.41-2.03 2.03z"/><circle fill="#D5CEA9" cx="57.84" cy="65.68" r="2.15"/><path fill="#fff" d="M56.12 66.03c-.38-.38-.05-1.32.33-1.7.38-.38 1.32-.71 1.7-.33.37.38-1.65 2.41-2.03 2.03z"/><circle fill="#D5CEA9" cx="62.48" cy="65.68" r="2.15"/><path fill="#fff" d="M60.76 66.03c-.38-.38-.05-1.32.33-1.7s1.32-.71 1.7-.33c.38.38-1.65 2.41-2.03 2.03z"/><circle fill="#D5CEA9" cx="67.14" cy="65.68" r="2.15"/><path fill="#fff" d="M65.42 66.03c-.38-.38-.05-1.32.33-1.7.38-.38 1.32-.71 1.7-.33.38.38-1.65 2.41-2.03 2.03z"/><circle fill="#E84849" cx="39.98" cy="72.55" r="2.15"/><path fill="#fff" d="M38.27 72.9c-.38-.38-.05-1.32.33-1.7.38-.38 1.32-.71 1.7-.33.37.38-1.65 2.4-2.03 2.03z"/><circle fill="#E84849" cx="35.29" cy="72.55" r="2.15"/><path fill="#fff" d="M33.57 72.9c-.38-.38-.05-1.32.33-1.7.38-.38 1.32-.71 1.7-.33.38.38-1.65 2.4-2.03 2.03z"/><circle fill="#E84849" cx="58.59" cy="72.55" r="2.15"/><path fill="#fff" d="M56.88 72.9c-.38-.38-.05-1.32.33-1.7.38-.38 1.32-.71 1.7-.33.37.38-1.66 2.4-2.03 2.03z"/><circle fill="#E84849" cx="63.03" cy="72.55" r="2.15"/><path fill="#fff" d="M61.32 72.9c-.38-.38-.05-1.32.33-1.7.38-.38 1.32-.71 1.7-.33.37.38-1.66 2.4-2.03 2.03z"/><circle fill="#E84849" cx="67.57" cy="72.55" r="2.15"/><path fill="#fff" d="M65.85 72.9c-.38-.38-.05-1.32.33-1.7.38-.38 1.32-.71 1.7-.33.38.38-1.65 2.4-2.03 2.03z"/><circle fill="#D5CEA9" cx="89.94" cy="72.49" r="2.15"/><path fill="#fff" d="M88.22 72.84c-.38-.38-.05-1.32.33-1.7.38-.38 1.32-.71 1.7-.33.38.38-1.65 2.41-2.03 2.03z"/><circle fill="#D5CEA9" cx="85.42" cy="72.49" r="2.15"/><path fill="#fff" d="M83.7 72.84c-.38-.38-.05-1.32.33-1.7s1.32-.71 1.7-.33c.38.38-1.65 2.41-2.03 2.03z"/><circle fill="#D5CEA9" cx="94.59" cy="72.49" r="2.15"/><path fill="#fff" d="M92.87 72.84c-.38-.38-.05-1.32.33-1.7.38-.38 1.32-.71 1.7-.33.38.38-1.65 2.41-2.03 2.03z"/><circle fill="#D5CEA9" cx="99.24" cy="72.49" r="2.15"/><path fill="#fff" d="M97.52 72.84c-.38-.38-.05-1.32.33-1.7s1.32-.71 1.7-.33c.38.38-1.65 2.41-2.03 2.03z"/><circle fill="#D5CEA9" cx="103.89" cy="72.49" r="2.15"/><path fill="#fff" d="M102.18 72.84c-.38-.38-.05-1.32.33-1.7.38-.38 1.32-.71 1.7-.33.37.38-1.66 2.41-2.03 2.03z"/><circle fill="#E84849" cx="39.98" cy="79.1" r="2.15"/><path fill="#fff" d="M38.27 79.44c-.38-.38-.05-1.32.33-1.7.38-.38 1.32-.71 1.7-.33.37.38-1.65 2.41-2.03 2.03z"/><circle fill="#E84849" cx="35.29" cy="79.1" r="2.15"/><path fill="#fff" d="M33.57 79.44c-.38-.38-.05-1.32.33-1.7.38-.38 1.32-.71 1.7-.33.38.38-1.65 2.41-2.03 2.03z"/><circle fill="#E84849" cx="58.59" cy="79.1" r="2.15"/><path fill="#fff" d="M56.88 79.44c-.38-.38-.05-1.32.33-1.7.38-.38 1.32-.71 1.7-.33.37.38-1.66 2.41-2.03 2.03z"/><circle fill="#E84849" cx="63.03" cy="79.1" r="2.15"/><path fill="#fff" d="M61.32 79.44c-.38-.38-.05-1.32.33-1.7.38-.38 1.32-.71 1.7-.33.37.38-1.66 2.41-2.03 2.03z"/><circle fill="#E84849" cx="67.57" cy="79.1" r="2.15"/><path fill="#fff" d="M65.85 79.44c-.38-.38-.05-1.32.33-1.7.38-.38 1.32-.71 1.7-.33.38.38-1.65 2.41-2.03 2.03z"/><circle fill="#D5CEA9" cx="77.06" cy="79.04" r="2.15"/><path fill="#fff" d="M75.34 79.38c-.38-.38-.05-1.32.33-1.7.38-.38 1.32-.71 1.7-.33.38.38-1.65 2.41-2.03 2.03z"/><circle fill="#D5CEA9" cx="72.54" cy="79.04" r="2.15"/><path fill="#fff" d="M70.82 79.38c-.38-.38-.05-1.32.33-1.7s1.32-.71 1.7-.33c.38.38-1.65 2.41-2.03 2.03z"/><circle fill="#D5CEA9" cx="81.71" cy="79.04" r="2.15"/><path fill="#fff" d="M80 79.38c-.38-.38-.05-1.32.33-1.7s1.32-.71 1.7-.33c.37.38-1.66 2.41-2.03 2.03z"/><circle fill="#D5CEA9" cx="86.36" cy="79.04" r="2.15"/><path fill="#fff" d="M84.64 79.38c-.38-.38-.05-1.32.33-1.7s1.32-.71 1.7-.33c.38.38-1.65 2.41-2.03 2.03z"/><circle fill="#D5CEA9" cx="103.89" cy="79.04" r="2.15"/><path fill="#fff" d="M102.18 79.38c-.38-.38-.05-1.32.33-1.7.38-.38 1.32-.71 1.7-.33.37.38-1.66 2.41-2.03 2.03z"/><circle fill="#E84849" cx="39.98" cy="86.14" r="2.15"/><path fill="#fff" d="M38.27 86.49c-.38-.38-.05-1.32.33-1.7.38-.38 1.32-.71 1.7-.33.37.38-1.65 2.41-2.03 2.03z"/><circle fill="#E84849" cx="35.29" cy="86.14" r="2.15"/><path fill="#fff" d="M33.57 86.49c-.38-.38-.05-1.32.33-1.7.38-.38 1.32-.71 1.7-.33.38.38-1.65 2.41-2.03 2.03z"/><circle fill="#E84849" cx="58.59" cy="86.14" r="2.15"/><path fill="#fff" d="M56.88 86.49c-.38-.38-.05-1.32.33-1.7.38-.38 1.32-.71 1.7-.33.37.38-1.66 2.41-2.03 2.03z"/><circle fill="#E84849" cx="63.03" cy="86.14" r="2.15"/><path fill="#fff" d="M61.32 86.49c-.38-.38-.05-1.32.33-1.7.38-.38 1.32-.71 1.7-.33.37.38-1.66 2.41-2.03 2.03z"/><circle fill="#E84849" cx="67.57" cy="86.14" r="2.15"/><path fill="#fff" d="M65.85 86.49c-.38-.38-.05-1.32.33-1.7.38-.38 1.32-.71 1.7-.33.38.38-1.65 2.41-2.03 2.03z"/><circle fill="#D5CEA9" cx="89.94" cy="86.08" r="2.15"/><path fill="#fff" d="M88.22 86.43c-.38-.38-.05-1.32.33-1.7.38-.38 1.32-.71 1.7-.33.38.38-1.65 2.41-2.03 2.03z"/><circle fill="#D5CEA9" cx="72.25" cy="86.08" r="2.15"/><path fill="#fff" d="M70.54 86.43c-.38-.38-.05-1.32.33-1.7.38-.38 1.32-.71 1.7-.33.37.38-1.65 2.41-2.03 2.03z"/><circle fill="#D5CEA9" cx="94.59" cy="86.08" r="2.15"/><path fill="#fff" d="M92.87 86.43c-.38-.38-.05-1.32.33-1.7.38-.38 1.32-.71 1.7-.33.38.38-1.65 2.41-2.03 2.03z"/><circle fill="#D5CEA9" cx="99.24" cy="86.08" r="2.15"/><path fill="#fff" d="M97.52 86.43c-.38-.38-.05-1.32.33-1.7s1.32-.71 1.7-.33c.38.38-1.65 2.41-2.03 2.03z"/><circle fill="#D5CEA9" cx="103.89" cy="86.08" r="2.15"/><path fill="#fff" d="M102.18 86.43c-.38-.38-.05-1.32.33-1.7.38-.38 1.32-.71 1.7-.33.37.38-1.66 2.41-2.03 2.03z"/><circle fill="#E84849" cx="55.82" cy="92.69" r="2.15"/><path fill="#fff" d="M54.1 93.04c-.38-.38-.05-1.32.33-1.7.38-.38 1.32-.71 1.7-.33.38.38-1.65 2.41-2.03 2.03z"/><circle fill="#E84849" cx="51.13" cy="92.69" r="2.15"/><path fill="#fff" d="M49.41 93.04c-.38-.38-.05-1.32.33-1.7.38-.38 1.32-.71 1.7-.33.38.38-1.65 2.41-2.03 2.03z"/><circle fill="#E84849" cx="60.31" cy="92.69" r="2.15"/><path fill="#fff" d="M58.59 93.04c-.38-.38-.05-1.32.33-1.7.38-.38 1.32-.71 1.7-.33.38.38-1.65 2.41-2.03 2.03z"/><circle fill="#E84849" cx="64.75" cy="92.69" r="2.15"/><path fill="#fff" d="M63.03 93.04c-.38-.38-.05-1.32.33-1.7.38-.38 1.32-.71 1.7-.33.38.38-1.65 2.41-2.03 2.03z"/><circle fill="#E84849" cx="69.28" cy="92.69" r="2.15"/><path fill="#fff" d="M67.57 93.04c-.38-.38-.05-1.32.33-1.7.38-.38 1.32-.71 1.7-.33.37.38-1.66 2.41-2.03 2.03z"/><circle fill="#D5CEA9" cx="78.97" cy="92.63" r="2.15"/><path fill="#fff" d="M77.25 92.98c-.38-.38-.05-1.32.33-1.7.38-.38 1.32-.71 1.7-.33.38.38-1.65 2.41-2.03 2.03z"/><circle fill="#D5CEA9" cx="73.97" cy="92.63" r="2.15"/><path fill="#fff" d="M72.25 92.98c-.38-.38-.05-1.32.33-1.7s1.32-.71 1.7-.33c.38.38-1.65 2.41-2.03 2.03z"/><circle fill="#D5CEA9" cx="94.59" cy="92.63" r="2.15"/><path fill="#fff" d="M92.87 92.98c-.38-.38-.05-1.32.33-1.7.38-.38 1.32-.71 1.7-.33.38.38-1.65 2.41-2.03 2.03z"/><circle fill="#D5CEA9" cx="99.24" cy="92.63" r="2.15"/><path fill="#fff" d="M97.52 92.98c-.38-.38-.05-1.32.33-1.7s1.32-.71 1.7-.33c.38.38-1.65 2.41-2.03 2.03z"/><circle fill="#D5CEA9" cx="103.89" cy="92.63" r="2.15"/><path fill="#fff" d="M102.18 92.98c-.38-.38-.05-1.32.33-1.7.38-.38 1.32-.71 1.7-.33.37.38-1.66 2.41-2.03 2.03z"/><circle fill="#E84849" cx="39.98" cy="99.18" r="2.15"/><path fill="#fff" d="M38.27 99.52c-.38-.38-.05-1.32.33-1.7.38-.38 1.32-.71 1.7-.33.37.38-1.65 2.41-2.03 2.03z"/><circle fill="#E84849" cx="35.29" cy="99.18" r="2.15"/><path fill="#fff" d="M33.57 99.52c-.38-.38-.05-1.32.33-1.7s1.32-.71 1.7-.33c.38.38-1.65 2.41-2.03 2.03z"/><circle fill="#E84849" cx="44.47" cy="99.18" r="2.15"/><path fill="#fff" d="M42.76 99.52c-.38-.38-.05-1.32.33-1.7s1.32-.71 1.7-.33c.37.38-1.66 2.41-2.03 2.03z"/><circle fill="#E84849" cx="65.08" cy="99.18" r="2.15"/><path fill="#fff" d="M63.37 99.52c-.38-.38-.05-1.32.33-1.7s1.32-.71 1.7-.33c.37.38-1.65 2.41-2.03 2.03z"/><circle fill="#E84849" cx="69.62" cy="99.18" r="2.15"/><path fill="#fff" d="M67.9 99.52c-.38-.38-.05-1.32.33-1.7.38-.38 1.32-.71 1.7-.33.38.38-1.65 2.41-2.03 2.03z"/><circle fill="#D5CEA9" cx="89.94" cy="99.12" r="2.15"/><path fill="#fff" d="M88.22 99.47c-.38-.38-.05-1.32.33-1.7.38-.38 1.32-.71 1.7-.33.38.37-1.65 2.4-2.03 2.03z"/><circle fill="#D5CEA9" cx="74.73" cy="99.12" r="2.15"/><path fill="#fff" d="M73.02 99.47c-.38-.38-.05-1.32.33-1.7s1.32-.71 1.7-.33c.37.37-1.66 2.4-2.03 2.03z"/><circle fill="#D5CEA9" cx="94.59" cy="99.12" r="2.15"/><path fill="#fff" d="M92.87 99.47c-.38-.38-.05-1.32.33-1.7.38-.38 1.32-.71 1.7-.33.38.37-1.65 2.4-2.03 2.03z"/><circle fill="#D5CEA9" cx="99.24" cy="99.12" r="2.15"/><path fill="#fff" d="M97.52 99.47c-.38-.38-.05-1.32.33-1.7s1.32-.71 1.7-.33c.38.37-1.65 2.4-2.03 2.03z"/><circle fill="#D5CEA9" cx="103.89" cy="99.12" r="2.15"/><path fill="#fff" d="M102.18 99.47c-.38-.38-.05-1.32.33-1.7.38-.38 1.32-.71 1.7-.33.37.37-1.66 2.4-2.03 2.03z"/></svg>