<svg xmlns="http://www.w3.org/2000/svg" width="136.91" height="136.91" viewBox="0 0 136.91 136.91" enable-background="new 0 0 136.914 136.914"><circle fill="#22C48A" cx="68.46" cy="68.46" r="63.33"/><path fill="#81BCB9" d="M47.24 98.28c-1.37 0-2.6-.55-3.5-1.44.9.92 2.16 1.48 3.55 1.48h1.07l-.02-.04h-1.1z"/><path fill="#8AC5C4" d="M50.89 98.28h-2.56l.02.05h2.58z"/><path fill="#EDC92C" d="M103.75 69.51l-3.76-6.67c-.23.99-.76 1.91-1.58 2.63l-8.54 7.37-20.29 17.48-2.24 5.41 34.5-19.42c.72-.41 1.29-.98 1.71-1.63.99-1.51 1.14-3.49.2-5.17z"/><path fill="#94D0D0" d="M54.71 98.28h-3.82l.04.05h3.89z"/><path fill="#F37C2A" d="M98.93 58.42L88.79 46.67c-.66-.77-1.52-1.28-2.43-1.54.65 1.26.79 2.78.2 4.2l-3.41 8.24-6.32 15.26-9.09 22.3 29.88-28.87-.2.06.99-.85c.83-.71 1.35-1.64 1.58-2.62.36-1.52.03-3.16-1.06-4.43z"/><path fill="#ED3351" d="M103.55 74.68c-.42.65-.99 1.22-1.71 1.63L67.35 95.73l-.38.21c-.87 1.38-2.39 2.31-4.15 2.34l-.09.05H99.7c2.76 0 4.99-2.23 4.99-4.99V77.82c.01-1.2-.43-2.28-1.14-3.14z"/><path fill="#A0D5D9" d="M60.35 98.28l-.05.05h2.43l.09-.05c-.02 0-.04.01-.07.01h-2.4zM54.71 98.28l.11.05h5.48l.05-.05z"/><path fill="#357180" d="M86.36 45.13c-.52-1.01-1.37-1.86-2.5-2.33l-14.34-5.93c-1.27-.53-2.63-.49-3.81 0 1.23.91 2.03 2.36 2.03 4v52.42c0 .98-.29 1.88-.78 2.65l.38-.21 2.03-4.9.12-.08 7.34-17.92 6.32-15.26 3.41-8.24c.59-1.42.46-2.94-.2-4.2z"/><path fill="#B3DCE2" d="M42.29 88.31l-.04-.05v5.04c0 1.39.57 2.65 1.49 3.55-.89-.9-1.44-2.14-1.44-3.51v-5.03zM42.29 80.95v-.76l-.04.04V81c.01-.02.02-.03.04-.05zM42.29 87.56l-.05-.08v.78l.05.05zM42.24 81v6.48l.05.08v-6.61l-.05.05zM42.8 88.47c-.03.11-.07.21-.1.32l.8.92-.7-1.24z"/><path fill="#1FA85B" d="M65.71 36.87c-.83-.61-1.85-.99-2.96-.99H47.24c-2.76 0-4.99 2.23-4.99 4.99v39.36l.05-.04V93.34c0 1.37.55 2.61 1.44 3.51.9.89 2.14 1.44 3.5 1.44h15.51c.03 0 .05-.01.07-.01 1.75-.02 3.28-.95 4.15-2.33.49-.77.78-1.67.78-2.65V40.87c-.01-1.65-.81-3.09-2.04-4z"/><circle fill="#81BCB9" cx="61.58" cy="92.54" r="3.17"/></svg>