<svg xmlns="http://www.w3.org/2000/svg" width="136.914" height="136.913" viewBox="0 0 136.914 136.913"><circle fill="#DBF0F4" cx="68.457" cy="68.454" r="63.333"/><path fill="#67B8CB" d="M106.82 55.884c-11.218 0-20.313 6.922-20.313 15.453 0 2.84 1.023 5.488 2.775 7.772l-2.71 9.105L97.88 85.2c2.7 1.01 5.727 1.59 8.94 1.59 11.218 0 20.312-6.917 20.312-15.454 0-8.53-9.094-15.452-20.313-15.452z"/><circle fill="#B7CAC4" cx="114.06" cy="70.61" r="2.471"/><circle fill="#B7CAC4" cx="106.317" cy="70.61" r="2.471"/><circle fill="#B7CAC4" cx="98.74" cy="70.61" r="2.472"/><path fill="#67B8CB" d="M80.57 21.884c-11.218 0-20.313 6.922-20.313 15.453 0 2.84 1.268 6.097 2.775 7.772 3.12 3.47 7.62 5.22 7.62 5.22l1.75 11.75 8.17-9.288c11.218 0 20.312-6.918 20.312-15.455 0-8.53-9.094-15.453-20.313-15.453z"/><circle fill="#B7CAC4" cx="87.81" cy="36.61" r="2.471"/><circle fill="#B7CAC4" cx="80.067" cy="36.61" r="2.471"/><circle fill="#B7CAC4" cx="72.49" cy="36.61" r="2.472"/><path fill="#67B8CB" d="M33.82 43.384c11.218 0 20.313 6.922 20.313 15.453 0 2.84-1.023 5.488-2.773 7.772l2.71 9.105L42.757 72.7c-2.7 1.01-5.725 1.59-8.94 1.59-11.218 0-20.312-6.917-20.312-15.454 0-8.53 9.095-15.452 20.313-15.452z"/><circle fill="#B7CAC4" cx="26.581" cy="58.11" r="2.471"/><circle fill="#B7CAC4" cx="34.324" cy="58.11" r="2.472"/><circle fill="#B7CAC4" cx="41.901" cy="58.11" r="2.471"/><path fill="#36858D" d="M76.61 109.318c0-3.816-.383-6.103-.383-6.103s4.96-6.867 5.34-16.404c0-1.515.744-12.27-12.205-12.758v-.018c-.03.002-.06.01-.096.01-.03 0-.06-.008-.096-.01v.018c-12.945.486-12.205 11.243-12.205 12.76.38 9.536 5.34 16.403 5.34 16.403s-.383 2.286-.383 6.103c-20.594 4.957-23.457 11.824-23.457 11.824v3.01c8.975 4.874 19.256 7.642 30.186 7.642 11.437 0 22.155-3.047 31.417-8.35v-2.302s-2.86-6.867-23.457-11.824z"/></svg>