<svg xmlns="http://www.w3.org/2000/svg" version="1.1" id="Layer_1" x="0" y="0" width="136.91" height="136.91" viewBox="0 0 136.91 136.91" enable-background="new 0 0 136.914 136.913" xml:space="preserve"><circle fill="#344E5D" cx="68.46" cy="68.46" r="63.33"/><path fill="#CDCCCB" d="M110.07 39.38c0 0.42-0.34 0.76-0.76 0.76H30.12c-0.42 0-0.76-0.34-0.76-0.76l0 0c0-0.42 0.34-0.76 0.76-0.76h79.18C109.73 38.62 110.07 38.96 110.07 39.38L110.07 39.38z"/><circle fill="#E84849" cx="90.36" cy="39.38" r="2.15"/><path fill="#FFFFFF" d="M88.64 39.73c-0.38-0.38-0.05-1.32 0.33-1.7 0.38-0.38 1.32-0.71 1.7-0.33C91.05 38.08 89.02 40.11 88.64 39.73z"/><circle fill="#E84849" cx="85.66" cy="39.38" r="2.15"/><path fill="#FFFFFF" d="M83.94 39.73c-0.38-0.38-0.05-1.32 0.33-1.7 0.38-0.38 1.32-0.71 1.7-0.33C86.35 38.08 84.32 40.11 83.94 39.73z"/><circle fill="#E84849" cx="94.85" cy="39.38" r="2.15"/><path fill="#FFFFFF" d="M93.13 39.73c-0.38-0.38-0.05-1.32 0.33-1.7 0.38-0.38 1.32-0.71 1.7-0.33C95.53 38.08 93.51 40.11 93.13 39.73z"/><circle fill="#E84849" cx="99.29" cy="39.38" r="2.15"/><path fill="#FFFFFF" d="M97.57 39.73c-0.38-0.38-0.05-1.32 0.33-1.7 0.38-0.38 1.32-0.71 1.7-0.33C99.98 38.08 97.95 40.11 97.57 39.73z"/><circle fill="#E84849" cx="103.82" cy="39.38" r="2.15"/><path fill="#FFFFFF" d="M102.1 39.73c-0.38-0.38-0.05-1.32 0.33-1.7 0.38-0.38 1.32-0.71 1.7-0.33C104.51 38.08 102.48 40.11 102.1 39.73z"/><circle fill="#D5CEA9" cx="39.76" cy="39.38" r="2.15"/><path fill="#FFFFFF" d="M38.04 39.73c-0.38-0.38-0.05-1.32 0.33-1.7 0.38-0.38 1.32-0.71 1.7-0.33C40.45 38.08 38.42 40.11 38.04 39.73z"/><circle fill="#D5CEA9" cx="35.24" cy="39.38" r="2.15"/><path fill="#FFFFFF" d="M33.52 39.73c-0.38-0.38-0.05-1.32 0.33-1.7 0.38-0.38 1.32-0.71 1.7-0.33C35.93 38.08 33.9 40.11 33.52 39.73z"/><circle fill="#D5CEA9" cx="44.41" cy="39.38" r="2.15"/><path fill="#FFFFFF" d="M42.69 39.73c-0.38-0.38-0.05-1.32 0.33-1.7 0.38-0.38 1.32-0.71 1.7-0.33C45.1 38.08 43.07 40.11 42.69 39.73z"/><circle fill="#D5CEA9" cx="49.06" cy="39.38" r="2.15"/><path fill="#FFFFFF" d="M47.34 39.73c-0.38-0.38-0.05-1.32 0.33-1.7 0.38-0.38 1.32-0.71 1.7-0.33C49.75 38.08 47.72 40.11 47.34 39.73z"/><circle fill="#D5CEA9" cx="53.71" cy="39.38" r="2.15"/><path fill="#FFFFFF" d="M52 39.73c-0.38-0.38-0.05-1.32 0.33-1.7 0.38-0.38 1.32-0.71 1.7-0.33C54.4 38.08 52.37 40.11 52 39.73z"/><path fill="#CDCCCB" d="M110.07 46.36c0 0.42-0.34 0.76-0.76 0.76H30.12c-0.42 0-0.76-0.34-0.76-0.76l0 0c0-0.42 0.34-0.76 0.76-0.76h79.18C109.73 45.6 110.07 45.94 110.07 46.36L110.07 46.36z"/><path fill="#CDCCCB" d="M110.07 52.95c0 0.42-0.34 0.76-0.76 0.76H30.12c-0.42 0-0.76-0.34-0.76-0.76l0 0c0-0.42 0.34-0.76 0.76-0.76h79.18C109.73 52.18 110.07 52.52 110.07 52.95L110.07 52.95z"/><path fill="#CDCCCB" d="M110.07 59.32c0 0.42-0.34 0.76-0.76 0.76H30.12c-0.42 0-0.76-0.34-0.76-0.76l0 0c0-0.42 0.34-0.76 0.76-0.76h79.18C109.73 58.56 110.07 58.9 110.07 59.32L110.07 59.32z"/><path fill="#CDCCCB" d="M110.07 65.76c0 0.42-0.34 0.76-0.76 0.76H30.12c-0.42 0-0.76-0.34-0.76-0.76l0 0c0-0.42 0.34-0.76 0.76-0.76h79.18C109.73 65 110.07 65.34 110.07 65.76L110.07 65.76z"/><path fill="#CDCCCB" d="M110.07 72.63c0 0.42-0.34 0.76-0.76 0.76H30.12c-0.42 0-0.76-0.34-0.76-0.76l0 0c0-0.42 0.34-0.76 0.76-0.76h79.18C109.73 71.87 110.07 72.21 110.07 72.63L110.07 72.63z"/><path fill="#CDCCCB" d="M110.07 79.23c0 0.42-0.34 0.76-0.76 0.76H30.12c-0.42 0-0.76-0.34-0.76-0.76l0 0c0-0.42 0.34-0.76 0.76-0.76h79.18C109.73 78.47 110.07 78.81 110.07 79.23L110.07 79.23z"/><path fill="#CDCCCB" d="M110.07 86.21c0 0.42-0.34 0.76-0.76 0.76H30.12c-0.42 0-0.76-0.34-0.76-0.76l0 0c0-0.42 0.34-0.76 0.76-0.76h79.18C109.73 85.45 110.07 85.79 110.07 86.21L110.07 86.21z"/><path fill="#CDCCCB" d="M110.07 92.8c0 0.42-0.34 0.76-0.76 0.76H30.12c-0.42 0-0.76-0.34-0.76-0.76l0 0c0-0.42 0.34-0.76 0.76-0.76h79.18C109.73 92.03 110.07 92.37 110.07 92.8L110.07 92.8z"/><path fill="#CDCCCB" d="M110.07 99.17c0 0.42-0.34 0.76-0.76 0.76H30.12c-0.42 0-0.76-0.34-0.76-0.76l0 0c0-0.42 0.34-0.76 0.76-0.76h79.18C109.73 98.41 110.07 98.75 110.07 99.17L110.07 99.17z"/><path fill="#B58755" d="M32.41 99.3c0 1.26-1.02 2.29-2.29 2.29l0 0c-1.27 0-2.29-1.02-2.29-2.29V36.71c0-1.26 1.02-2.29 2.29-2.29l0 0c1.26 0 2.29 1.02 2.29 2.29V99.3z"/><path fill="#B58755" d="M110.83 99.3c0 1.26-1.02 2.29-2.29 2.29l0 0c-1.26 0-2.29-1.02-2.29-2.29V36.71c0-1.26 1.02-2.29 2.29-2.29l0 0c1.26 0 2.29 1.02 2.29 2.29V99.3z"/><circle fill="#E84849" cx="77.19" cy="46.25" r="2.15"/><path fill="#FFFFFF" d="M75.47 46.6c-0.38-0.38-0.05-1.32 0.33-1.7 0.38-0.38 1.32-0.71 1.7-0.33C77.88 44.95 75.85 46.98 75.47 46.6z"/><circle fill="#E84849" cx="72.5" cy="46.25" r="2.15"/><path fill="#FFFFFF" d="M70.78 46.6c-0.38-0.38-0.05-1.32 0.33-1.7 0.38-0.38 1.32-0.71 1.7-0.33C73.19 44.95 71.16 46.98 70.78 46.6z"/><circle fill="#E84849" cx="94.85" cy="46.25" r="2.15"/><path fill="#FFFFFF" d="M93.13 46.6c-0.38-0.38-0.05-1.32 0.33-1.7 0.38-0.38 1.32-0.71 1.7-0.33C95.53 44.95 93.51 46.98 93.13 46.6z"/><circle fill="#E84849" cx="99.29" cy="46.25" r="2.15"/><path fill="#FFFFFF" d="M97.57 46.6c-0.38-0.38-0.05-1.32 0.33-1.7 0.38-0.38 1.32-0.71 1.7-0.33C99.98 44.95 97.95 46.98 97.57 46.6z"/><circle fill="#E84849" cx="103.82" cy="46.25" r="2.15"/><path fill="#FFFFFF" d="M102.1 46.6c-0.38-0.38-0.05-1.32 0.33-1.7 0.38-0.38 1.32-0.71 1.7-0.33C104.51 44.95 102.48 46.98 102.1 46.6z"/><circle fill="#D5CEA9" cx="39.76" cy="46.25" r="2.15"/><path fill="#FFFFFF" d="M38.04 46.6c-0.38-0.38-0.05-1.32 0.33-1.7 0.38-0.38 1.32-0.71 1.7-0.33C40.45 44.95 38.42 46.98 38.04 46.6z"/><circle fill="#D5CEA9" cx="35.24" cy="46.25" r="2.15"/><path fill="#FFFFFF" d="M33.52 46.6c-0.38-0.38-0.05-1.32 0.33-1.7 0.38-0.38 1.32-0.71 1.7-0.33C35.93 44.95 33.9 46.98 33.52 46.6z"/><circle fill="#D5CEA9" cx="44.41" cy="46.25" r="2.15"/><path fill="#FFFFFF" d="M42.69 46.6c-0.38-0.38-0.05-1.32 0.33-1.7 0.38-0.38 1.32-0.71 1.7-0.33C45.1 44.95 43.07 46.98 42.69 46.6z"/><circle fill="#D5CEA9" cx="49.06" cy="46.25" r="2.15"/><path fill="#FFFFFF" d="M47.34 46.6c-0.38-0.38-0.05-1.32 0.33-1.7 0.38-0.38 1.32-0.71 1.7-0.33C49.75 44.95 47.72 46.98 47.34 46.6z"/><circle fill="#D5CEA9" cx="67.45" cy="46.25" r="2.15"/><path fill="#FFFFFF" d="M65.73 46.6c-0.38-0.38-0.05-1.32 0.33-1.7 0.38-0.38 1.32-0.71 1.7-0.33C68.14 44.95 66.11 46.98 65.73 46.6z"/><circle fill="#E84849" cx="76.62" cy="52.8" r="2.15"/><path fill="#FFFFFF" d="M74.9 53.15c-0.38-0.38-0.05-1.32 0.33-1.7s1.32-0.71 1.7-0.33C77.31 51.5 75.28 53.53 74.9 53.15z"/><circle fill="#E84849" cx="71.92" cy="52.8" r="2.15"/><path fill="#FFFFFF" d="M70.21 53.15c-0.38-0.38-0.05-1.32 0.33-1.7s1.32-0.71 1.7-0.33C72.61 51.5 70.58 53.53 70.21 53.15z"/><circle fill="#E84849" cx="94.85" cy="52.8" r="2.15"/><path fill="#FFFFFF" d="M93.13 53.15c-0.38-0.38-0.05-1.32 0.33-1.7s1.32-0.71 1.7-0.33C95.53 51.5 93.51 53.53 93.13 53.15z"/><circle fill="#E84849" cx="99.29" cy="52.8" r="2.15"/><path fill="#FFFFFF" d="M97.57 53.15c-0.38-0.38-0.05-1.32 0.33-1.7s1.32-0.71 1.7-0.33C99.98 51.5 97.95 53.53 97.57 53.15z"/><circle fill="#E84849" cx="103.82" cy="52.8" r="2.15"/><path fill="#FFFFFF" d="M102.1 53.15c-0.38-0.38-0.05-1.32 0.33-1.7 0.38-0.38 1.32-0.71 1.7-0.33C104.51 51.5 102.48 53.53 102.1 53.15z"/><circle fill="#D5CEA9" cx="53.11" cy="52.99" r="2.15"/><path fill="#FFFFFF" d="M51.4 53.34c-0.38-0.38-0.05-1.32 0.33-1.7 0.38-0.38 1.32-0.71 1.7-0.33C53.8 51.69 51.77 53.72 51.4 53.34z"/><circle fill="#D5CEA9" cx="48.6" cy="52.99" r="2.15"/><path fill="#FFFFFF" d="M46.88 53.34c-0.38-0.38-0.05-1.32 0.33-1.7 0.38-0.38 1.32-0.71 1.7-0.33C49.29 51.69 47.26 53.72 46.88 53.34z"/><circle fill="#D5CEA9" cx="57.77" cy="52.8" r="2.15"/><path fill="#FFFFFF" d="M56.05 53.15c-0.38-0.38-0.05-1.32 0.33-1.7s1.32-0.71 1.7-0.33C58.46 51.5 56.43 53.53 56.05 53.15z"/><circle fill="#D5CEA9" cx="62.41" cy="52.8" r="2.15"/><path fill="#FFFFFF" d="M60.69 53.15c-0.38-0.38-0.05-1.32 0.33-1.7s1.32-0.71 1.7-0.33C63.1 51.5 61.07 53.53 60.69 53.15z"/><circle fill="#D5CEA9" cx="67.07" cy="52.8" r="2.15"/><path fill="#FFFFFF" d="M65.35 53.15c-0.38-0.38-0.05-1.32 0.33-1.7 0.38-0.38 1.32-0.71 1.7-0.33C67.76 51.5 65.73 53.53 65.35 53.15z"/><circle fill="#E84849" cx="90.36" cy="59.13" r="2.15"/><path fill="#FFFFFF" d="M88.64 59.48c-0.38-0.38-0.05-1.32 0.33-1.7 0.38-0.38 1.32-0.71 1.7-0.33C91.05 57.83 89.02 59.86 88.64 59.48z"/><circle fill="#E84849" cx="71.73" cy="59.13" r="2.15"/><path fill="#FFFFFF" d="M70.02 59.48c-0.38-0.38-0.05-1.32 0.33-1.7 0.38-0.38 1.32-0.71 1.7-0.33C72.42 57.83 70.39 59.86 70.02 59.48z"/><circle fill="#E84849" cx="94.85" cy="59.13" r="2.15"/><path fill="#FFFFFF" d="M93.13 59.48c-0.38-0.38-0.05-1.32 0.33-1.7s1.32-0.71 1.7-0.33C95.53 57.83 93.51 59.86 93.13 59.48z"/><circle fill="#E84849" cx="99.29" cy="59.13" r="2.15"/><path fill="#FFFFFF" d="M97.57 59.48c-0.38-0.38-0.05-1.32 0.33-1.7s1.32-0.71 1.7-0.33C99.98 57.83 97.95 59.86 97.57 59.48z"/><circle fill="#E84849" cx="103.82" cy="59.13" r="2.15"/><path fill="#FFFFFF" d="M102.1 59.48c-0.38-0.38-0.05-1.32 0.33-1.7 0.38-0.38 1.32-0.71 1.7-0.33C104.51 57.83 102.48 59.86 102.1 59.48z"/><circle fill="#D5CEA9" cx="39.76" cy="59.13" r="2.15"/><path fill="#FFFFFF" d="M38.04 59.48c-0.38-0.38-0.05-1.32 0.33-1.7s1.32-0.71 1.7-0.33C40.45 57.83 38.42 59.86 38.04 59.48z"/><circle fill="#D5CEA9" cx="35.24" cy="59.13" r="2.15"/><path fill="#FFFFFF" d="M33.52 59.48c-0.38-0.38-0.05-1.32 0.33-1.7 0.38-0.38 1.32-0.71 1.7-0.33C35.93 57.83 33.9 59.86 33.52 59.48z"/><circle fill="#D5CEA9" cx="57.58" cy="59.13" r="2.15"/><path fill="#FFFFFF" d="M55.86 59.48c-0.38-0.38-0.05-1.32 0.33-1.7 0.38-0.38 1.32-0.71 1.7-0.33C58.27 57.83 56.24 59.86 55.86 59.48z"/><circle fill="#D5CEA9" cx="62.22" cy="59.13" r="2.15"/><path fill="#FFFFFF" d="M60.51 59.48c-0.38-0.38-0.05-1.32 0.33-1.7s1.32-0.71 1.7-0.33C62.91 57.83 60.88 59.86 60.51 59.48z"/><circle fill="#D5CEA9" cx="66.88" cy="59.13" r="2.15"/><path fill="#FFFFFF" d="M65.16 59.48c-0.38-0.38-0.05-1.32 0.33-1.7 0.38-0.38 1.32-0.71 1.7-0.33C67.57 57.83 65.54 59.86 65.16 59.48z"/><circle fill="#E84849" cx="77" cy="65.68" r="2.15"/><path fill="#FFFFFF" d="M75.28 66.03c-0.38-0.38-0.05-1.32 0.33-1.7 0.38-0.38 1.32-0.71 1.7-0.33C77.69 64.38 75.66 66.41 75.28 66.03z"/><circle fill="#E84849" cx="72.3" cy="65.68" r="2.15"/><path fill="#FFFFFF" d="M70.59 66.03c-0.38-0.38-0.05-1.32 0.33-1.7s1.32-0.71 1.7-0.33C73 64.38 70.97 66.41 70.59 66.03z"/><circle fill="#E84849" cx="81.49" cy="65.68" r="2.15"/><path fill="#FFFFFF" d="M79.77 66.03c-0.38-0.38-0.05-1.32 0.33-1.7s1.32-0.71 1.7-0.33C82.18 64.38 80.15 66.41 79.77 66.03z"/><circle fill="#E84849" cx="85.93" cy="65.68" r="2.15"/><path fill="#FFFFFF" d="M84.21 66.03c-0.38-0.38-0.05-1.32 0.33-1.7s1.32-0.71 1.7-0.33C86.62 64.38 84.59 66.41 84.21 66.03z"/><circle fill="#E84849" cx="103.82" cy="65.68" r="2.15"/><path fill="#FFFFFF" d="M102.1 66.03c-0.38-0.38-0.05-1.32 0.33-1.7 0.38-0.38 1.32-0.71 1.7-0.33C104.51 64.38 102.48 66.41 102.1 66.03z"/><circle fill="#D5CEA9" cx="39.76" cy="65.68" r="2.15"/><path fill="#FFFFFF" d="M38.04 66.03c-0.38-0.38-0.05-1.32 0.33-1.7s1.32-0.71 1.7-0.33C40.45 64.38 38.42 66.41 38.04 66.03z"/><circle fill="#D5CEA9" cx="35.24" cy="65.68" r="2.15"/><path fill="#FFFFFF" d="M33.52 66.03c-0.38-0.38-0.05-1.32 0.33-1.7 0.38-0.38 1.32-0.71 1.7-0.33C35.93 64.38 33.9 66.41 33.52 66.03z"/><circle fill="#D5CEA9" cx="57.84" cy="65.68" r="2.15"/><path fill="#FFFFFF" d="M56.12 66.03c-0.38-0.38-0.05-1.32 0.33-1.7 0.38-0.38 1.32-0.71 1.7-0.33C58.52 64.38 56.5 66.41 56.12 66.03z"/><circle fill="#D5CEA9" cx="62.48" cy="65.68" r="2.15"/><path fill="#FFFFFF" d="M60.76 66.03c-0.38-0.38-0.05-1.32 0.33-1.7s1.32-0.71 1.7-0.33C63.17 64.38 61.14 66.41 60.76 66.03z"/><circle fill="#D5CEA9" cx="67.14" cy="65.68" r="2.15"/><path fill="#FFFFFF" d="M65.42 66.03c-0.38-0.38-0.05-1.32 0.33-1.7 0.38-0.38 1.32-0.71 1.7-0.33C67.83 64.38 65.8 66.41 65.42 66.03z"/><circle fill="#E84849" cx="39.98" cy="72.55" r="2.15"/><path fill="#FFFFFF" d="M38.27 72.9c-0.38-0.38-0.05-1.32 0.33-1.7 0.38-0.38 1.32-0.71 1.7-0.33C40.67 71.25 38.65 73.27 38.27 72.9z"/><circle fill="#E84849" cx="35.29" cy="72.55" r="2.15"/><path fill="#FFFFFF" d="M33.57 72.9c-0.38-0.38-0.05-1.32 0.33-1.7 0.38-0.38 1.32-0.71 1.7-0.33C35.98 71.25 33.95 73.27 33.57 72.9z"/><circle fill="#E84849" cx="58.59" cy="72.55" r="2.15"/><path fill="#FFFFFF" d="M56.88 72.9c-0.38-0.38-0.05-1.32 0.33-1.7 0.38-0.38 1.32-0.71 1.7-0.33C59.28 71.25 57.25 73.27 56.88 72.9z"/><circle fill="#E84849" cx="63.03" cy="72.55" r="2.15"/><path fill="#FFFFFF" d="M61.32 72.9c-0.38-0.38-0.05-1.32 0.33-1.7 0.38-0.38 1.32-0.71 1.7-0.33C63.72 71.25 61.69 73.27 61.32 72.9z"/><circle fill="#E84849" cx="67.57" cy="72.55" r="2.15"/><path fill="#FFFFFF" d="M65.85 72.9c-0.38-0.38-0.05-1.32 0.33-1.7 0.38-0.38 1.32-0.71 1.7-0.33C68.26 71.25 66.23 73.27 65.85 72.9z"/><circle fill="#D5CEA9" cx="89.94" cy="72.49" r="2.15"/><path fill="#FFFFFF" d="M88.22 72.84c-0.38-0.38-0.05-1.32 0.33-1.7 0.38-0.38 1.32-0.71 1.7-0.33C90.63 71.19 88.6 73.22 88.22 72.84z"/><circle fill="#D5CEA9" cx="85.42" cy="72.49" r="2.15"/><path fill="#FFFFFF" d="M83.7 72.84c-0.38-0.38-0.05-1.32 0.33-1.7s1.32-0.71 1.7-0.33C86.11 71.19 84.08 73.22 83.7 72.84z"/><circle fill="#D5CEA9" cx="94.59" cy="72.49" r="2.15"/><path fill="#FFFFFF" d="M92.87 72.84c-0.38-0.38-0.05-1.32 0.33-1.7 0.38-0.38 1.32-0.71 1.7-0.33C95.28 71.19 93.25 73.22 92.87 72.84z"/><circle fill="#D5CEA9" cx="99.24" cy="72.49" r="2.15"/><path fill="#FFFFFF" d="M97.52 72.84c-0.38-0.38-0.05-1.32 0.33-1.7s1.32-0.71 1.7-0.33C99.93 71.19 97.9 73.22 97.52 72.84z"/><circle fill="#D5CEA9" cx="103.89" cy="72.49" r="2.15"/><path fill="#FFFFFF" d="M102.18 72.84c-0.38-0.38-0.05-1.32 0.33-1.7 0.38-0.38 1.32-0.71 1.7-0.33C104.58 71.19 102.55 73.22 102.18 72.84z"/><circle fill="#E84849" cx="39.98" cy="79.1" r="2.15"/><path fill="#FFFFFF" d="M38.27 79.44c-0.38-0.38-0.05-1.32 0.33-1.7 0.38-0.38 1.32-0.71 1.7-0.33C40.67 77.79 38.65 79.82 38.27 79.44z"/><circle fill="#E84849" cx="35.29" cy="79.1" r="2.15"/><path fill="#FFFFFF" d="M33.57 79.44c-0.38-0.38-0.05-1.32 0.33-1.7 0.38-0.38 1.32-0.71 1.7-0.33C35.98 77.79 33.95 79.82 33.57 79.44z"/><circle fill="#E84849" cx="58.59" cy="79.1" r="2.15"/><path fill="#FFFFFF" d="M56.88 79.44c-0.38-0.38-0.05-1.32 0.33-1.7 0.38-0.38 1.32-0.71 1.7-0.33C59.28 77.79 57.25 79.82 56.88 79.44z"/><circle fill="#E84849" cx="63.03" cy="79.1" r="2.15"/><path fill="#FFFFFF" d="M61.32 79.44c-0.38-0.38-0.05-1.32 0.33-1.7 0.38-0.38 1.32-0.71 1.7-0.33C63.72 77.79 61.69 79.82 61.32 79.44z"/><circle fill="#E84849" cx="67.57" cy="79.1" r="2.15"/><path fill="#FFFFFF" d="M65.85 79.44c-0.38-0.38-0.05-1.32 0.33-1.7 0.38-0.38 1.32-0.71 1.7-0.33C68.26 77.79 66.23 79.82 65.85 79.44z"/><circle fill="#D5CEA9" cx="77.06" cy="79.04" r="2.15"/><path fill="#FFFFFF" d="M75.34 79.38c-0.38-0.38-0.05-1.32 0.33-1.7 0.38-0.38 1.32-0.71 1.7-0.33C77.75 77.73 75.72 79.76 75.34 79.38z"/><circle fill="#D5CEA9" cx="72.54" cy="79.04" r="2.15"/><path fill="#FFFFFF" d="M70.82 79.38c-0.38-0.38-0.05-1.32 0.33-1.7s1.32-0.71 1.7-0.33C73.23 77.73 71.2 79.76 70.82 79.38z"/><circle fill="#D5CEA9" cx="81.71" cy="79.04" r="2.15"/><path fill="#FFFFFF" d="M80 79.38c-0.38-0.38-0.05-1.32 0.33-1.7s1.32-0.71 1.7-0.33C82.4 77.73 80.37 79.76 80 79.38z"/><circle fill="#D5CEA9" cx="86.36" cy="79.04" r="2.15"/><path fill="#FFFFFF" d="M84.64 79.38c-0.38-0.38-0.05-1.32 0.33-1.7s1.32-0.71 1.7-0.33C87.05 77.73 85.02 79.76 84.64 79.38z"/><circle fill="#D5CEA9" cx="103.89" cy="79.04" r="2.15"/><path fill="#FFFFFF" d="M102.18 79.38c-0.38-0.38-0.05-1.32 0.33-1.7 0.38-0.38 1.32-0.71 1.7-0.33C104.58 77.73 102.55 79.76 102.18 79.38z"/><circle fill="#E84849" cx="39.98" cy="86.14" r="2.15"/><path fill="#FFFFFF" d="M38.27 86.49c-0.38-0.38-0.05-1.32 0.33-1.7 0.38-0.38 1.32-0.71 1.7-0.33C40.67 84.84 38.65 86.87 38.27 86.49z"/><circle fill="#E84849" cx="35.29" cy="86.14" r="2.15"/><path fill="#FFFFFF" d="M33.57 86.49c-0.38-0.38-0.05-1.32 0.33-1.7 0.38-0.38 1.32-0.71 1.7-0.33C35.98 84.84 33.95 86.87 33.57 86.49z"/><circle fill="#E84849" cx="58.59" cy="86.14" r="2.15"/><path fill="#FFFFFF" d="M56.88 86.49c-0.38-0.38-0.05-1.32 0.33-1.7 0.38-0.38 1.32-0.71 1.7-0.33C59.28 84.84 57.25 86.87 56.88 86.49z"/><circle fill="#E84849" cx="63.03" cy="86.14" r="2.15"/><path fill="#FFFFFF" d="M61.32 86.49c-0.38-0.38-0.05-1.32 0.33-1.7 0.38-0.38 1.32-0.71 1.7-0.33C63.72 84.84 61.69 86.87 61.32 86.49z"/><circle fill="#E84849" cx="67.57" cy="86.14" r="2.15"/><path fill="#FFFFFF" d="M65.85 86.49c-0.38-0.38-0.05-1.32 0.33-1.7 0.38-0.38 1.32-0.71 1.7-0.33C68.26 84.84 66.23 86.87 65.85 86.49z"/><circle fill="#D5CEA9" cx="89.94" cy="86.08" r="2.15"/><path fill="#FFFFFF" d="M88.22 86.43c-0.38-0.38-0.05-1.32 0.33-1.7 0.38-0.38 1.32-0.71 1.7-0.33C90.63 84.78 88.6 86.81 88.22 86.43z"/><circle fill="#D5CEA9" cx="72.25" cy="86.08" r="2.15"/><path fill="#FFFFFF" d="M70.54 86.43c-0.38-0.38-0.05-1.32 0.33-1.7 0.38-0.38 1.32-0.71 1.7-0.33C72.94 84.78 70.92 86.81 70.54 86.43z"/><circle fill="#D5CEA9" cx="94.59" cy="86.08" r="2.15"/><path fill="#FFFFFF" d="M92.87 86.43c-0.38-0.38-0.05-1.32 0.33-1.7 0.38-0.38 1.32-0.71 1.7-0.33C95.28 84.78 93.25 86.81 92.87 86.43z"/><circle fill="#D5CEA9" cx="99.24" cy="86.08" r="2.15"/><path fill="#FFFFFF" d="M97.52 86.43c-0.38-0.38-0.05-1.32 0.33-1.7s1.32-0.71 1.7-0.33C99.93 84.78 97.9 86.81 97.52 86.43z"/><circle fill="#D5CEA9" cx="103.89" cy="86.08" r="2.15"/><path fill="#FFFFFF" d="M102.18 86.43c-0.38-0.38-0.05-1.32 0.33-1.7 0.38-0.38 1.32-0.71 1.7-0.33C104.58 84.78 102.55 86.81 102.18 86.43z"/><circle fill="#E84849" cx="55.82" cy="92.69" r="2.15"/><path fill="#FFFFFF" d="M54.1 93.04c-0.38-0.38-0.05-1.32 0.33-1.7 0.38-0.38 1.32-0.71 1.7-0.33C56.51 91.39 54.48 93.42 54.1 93.04z"/><circle fill="#E84849" cx="51.13" cy="92.69" r="2.15"/><path fill="#FFFFFF" d="M49.41 93.04c-0.38-0.38-0.05-1.32 0.33-1.7 0.38-0.38 1.32-0.71 1.7-0.33C51.82 91.39 49.79 93.42 49.41 93.04z"/><circle fill="#E84849" cx="60.31" cy="92.69" r="2.15"/><path fill="#FFFFFF" d="M58.59 93.04c-0.38-0.38-0.05-1.32 0.33-1.7 0.38-0.38 1.32-0.71 1.7-0.33C61 91.39 58.97 93.42 58.59 93.04z"/><circle fill="#E84849" cx="64.75" cy="92.69" r="2.15"/><path fill="#FFFFFF" d="M63.03 93.04c-0.38-0.38-0.05-1.32 0.33-1.7 0.38-0.38 1.32-0.71 1.7-0.33C65.44 91.39 63.41 93.42 63.03 93.04z"/><circle fill="#E84849" cx="69.28" cy="92.69" r="2.15"/><path fill="#FFFFFF" d="M67.57 93.04c-0.38-0.38-0.05-1.32 0.33-1.7 0.38-0.38 1.32-0.71 1.7-0.33C69.97 91.39 67.94 93.42 67.57 93.04z"/><circle fill="#D5CEA9" cx="78.97" cy="92.63" r="2.15"/><path fill="#FFFFFF" d="M77.25 92.98c-0.38-0.38-0.05-1.32 0.33-1.7 0.38-0.38 1.32-0.71 1.7-0.33C79.66 91.33 77.63 93.36 77.25 92.98z"/><circle fill="#D5CEA9" cx="73.97" cy="92.63" r="2.15"/><path fill="#FFFFFF" d="M72.25 92.98c-0.38-0.38-0.05-1.32 0.33-1.7s1.32-0.71 1.7-0.33C74.66 91.33 72.63 93.36 72.25 92.98z"/><circle fill="#D5CEA9" cx="94.59" cy="92.63" r="2.15"/><path fill="#FFFFFF" d="M92.87 92.98c-0.38-0.38-0.05-1.32 0.33-1.7 0.38-0.38 1.32-0.71 1.7-0.33C95.28 91.33 93.25 93.36 92.87 92.98z"/><circle fill="#D5CEA9" cx="99.24" cy="92.63" r="2.15"/><path fill="#FFFFFF" d="M97.52 92.98c-0.38-0.38-0.05-1.32 0.33-1.7s1.32-0.71 1.7-0.33C99.93 91.33 97.9 93.36 97.52 92.98z"/><circle fill="#D5CEA9" cx="103.89" cy="92.63" r="2.15"/><path fill="#FFFFFF" d="M102.18 92.98c-0.38-0.38-0.05-1.32 0.33-1.7 0.38-0.38 1.32-0.71 1.7-0.33C104.58 91.33 102.55 93.36 102.18 92.98z"/><circle fill="#E84849" cx="39.98" cy="99.18" r="2.15"/><path fill="#FFFFFF" d="M38.27 99.52c-0.38-0.38-0.05-1.32 0.33-1.7 0.38-0.38 1.32-0.71 1.7-0.33C40.67 97.87 38.65 99.9 38.27 99.52z"/><circle fill="#E84849" cx="35.29" cy="99.18" r="2.15"/><path fill="#FFFFFF" d="M33.57 99.52c-0.38-0.38-0.05-1.32 0.33-1.7s1.32-0.71 1.7-0.33C35.98 97.87 33.95 99.9 33.57 99.52z"/><circle fill="#E84849" cx="44.47" cy="99.18" r="2.15"/><path fill="#FFFFFF" d="M42.76 99.52c-0.38-0.38-0.05-1.32 0.33-1.7s1.32-0.71 1.7-0.33C45.16 97.87 43.13 99.9 42.76 99.52z"/><circle fill="#E84849" cx="65.08" cy="99.18" r="2.15"/><path fill="#FFFFFF" d="M63.37 99.52c-0.38-0.38-0.05-1.32 0.33-1.7s1.32-0.71 1.7-0.33C65.77 97.87 63.75 99.9 63.37 99.52z"/><circle fill="#E84849" cx="69.62" cy="99.18" r="2.15"/><path fill="#FFFFFF" d="M67.9 99.52c-0.38-0.38-0.05-1.32 0.33-1.7 0.38-0.38 1.32-0.71 1.7-0.33C70.31 97.87 68.28 99.9 67.9 99.52z"/><circle fill="#D5CEA9" cx="89.94" cy="99.12" r="2.15"/><path fill="#FFFFFF" d="M88.22 99.47c-0.38-0.38-0.05-1.32 0.33-1.7 0.38-0.38 1.32-0.71 1.7-0.33C90.63 97.81 88.6 99.84 88.22 99.47z"/><circle fill="#D5CEA9" cx="74.73" cy="99.12" r="2.15"/><path fill="#FFFFFF" d="M73.02 99.47c-0.38-0.38-0.05-1.32 0.33-1.7s1.32-0.71 1.7-0.33C75.42 97.81 73.39 99.84 73.02 99.47z"/><circle fill="#D5CEA9" cx="94.59" cy="99.12" r="2.15"/><path fill="#FFFFFF" d="M92.87 99.47c-0.38-0.38-0.05-1.32 0.33-1.7 0.38-0.38 1.32-0.71 1.7-0.33C95.28 97.81 93.25 99.84 92.87 99.47z"/><circle fill="#D5CEA9" cx="99.24" cy="99.12" r="2.15"/><path fill="#FFFFFF" d="M97.52 99.47c-0.38-0.38-0.05-1.32 0.33-1.7s1.32-0.71 1.7-0.33C99.93 97.81 97.9 99.84 97.52 99.47z"/><circle fill="#D5CEA9" cx="103.89" cy="99.12" r="2.15"/><path fill="#FFFFFF" d="M102.18 99.47c-0.38-0.38-0.05-1.32 0.33-1.7 0.38-0.38 1.32-0.71 1.7-0.33C104.58 97.81 102.55 99.84 102.18 99.47z"/></svg>
