<svg xmlns="http://www.w3.org/2000/svg" version="1.1" id="Layer_1" x="0" y="0" width="136.91" height="136.91" viewBox="0 0 136.91 136.91" enable-background="new 0 0 136.914 136.914" xml:space="preserve"><circle fill="#22C48A" cx="68.46" cy="68.46" r="63.33"/><path fill="#81BCB9" d="M47.24 98.28c-1.37 0-2.6-0.55-3.5-1.44 0.9 0.92 2.16 1.48 3.55 1.48h1.07l-0.02-0.04H47.24z"/><polygon fill="#8AC5C4" points="50.89 98.28 48.33 98.28 48.35 98.33 50.93 98.33 "/><path fill="#EDC92C" d="M103.75 69.51l-3.76-6.67c-0.23 0.99-0.76 1.91-1.58 2.63l-8.54 7.37L69.58 90.32l-2.24 5.41 34.5-19.42c0.72-0.41 1.29-0.98 1.71-1.63C104.54 73.17 104.69 71.19 103.75 69.51z"/><polygon fill="#94D0D0" points="54.71 98.28 50.89 98.28 50.93 98.33 54.82 98.33 "/><path fill="#F37C2A" d="M98.93 58.42L88.79 46.67c-0.66-0.77-1.52-1.28-2.43-1.54 0.65 1.26 0.79 2.78 0.2 4.2l-3.41 8.24 -6.32 15.26 -9.09 22.3 29.88-28.87 -0.2 0.06 0.99-0.85c0.83-0.71 1.35-1.64 1.58-2.62C100.35 61.33 100.02 59.69 98.93 58.42z"/><path fill="#ED3351" d="M103.55 74.68c-0.42 0.65-0.99 1.22-1.71 1.63L67.35 95.73l-0.38 0.21c-0.87 1.38-2.39 2.31-4.15 2.34l-0.09 0.05H66.2h33.5c2.76 0 4.99-2.23 4.99-4.99V77.82C104.7 76.62 104.26 75.54 103.55 74.68z"/><path fill="#A0D5D9" d="M60.35 98.28l-0.05 0.05h2.43l0.09-0.05c-0.02 0-0.04 0.01-0.07 0.01H60.35z"/><polygon fill="#A0D5D9" points="54.71 98.28 54.82 98.33 60.3 98.33 60.35 98.28 "/><path fill="#357180" d="M86.36 45.13c-0.52-1.01-1.37-1.86-2.5-2.33L69.52 36.87c-1.27-0.53-2.63-0.49-3.81 0 1.23 0.91 2.03 2.36 2.03 4v17.37 8 6.59 19.08 1.38c0 0.98-0.29 1.88-0.78 2.65l0.38-0.21 2.03-4.9 0.12-0.08 7.34-17.92 6.32-15.26 3.41-8.24C87.15 47.91 87.02 46.39 86.36 45.13z"/><path fill="#B3DCE2" d="M42.29 88.31l-0.04-0.05v5.04c0 1.39 0.57 2.65 1.49 3.55 -0.89-0.9-1.44-2.14-1.44-3.51V88.31z"/><path fill="#B3DCE2" d="M42.29 80.95v-0.76l-0.04 0.04v0.77C42.26 80.98 42.27 80.97 42.29 80.95z"/><polygon fill="#B3DCE2" points="42.29 87.56 42.24 87.48 42.24 88.26 42.29 88.31 "/><path fill="#B3DCE2" d="M42.24 81v6.48l0.05 0.08v-6.61C42.27 80.97 42.26 80.98 42.24 81z"/><path fill="#B3DCE2" d="M42.8 88.47c-0.03 0.11-0.07 0.21-0.1 0.32l0.8 0.92L42.8 88.47z"/><path fill="#1FA85B" d="M65.71 36.87c-0.83-0.61-1.85-0.99-2.96-0.99H47.24c-2.76 0-4.99 2.23-4.99 4.99v39.36l0.05-0.04v0.76 6.61 0.75 5.03c0 1.37 0.55 2.61 1.44 3.51 0.9 0.89 2.14 1.44 3.5 1.44h1.09 2.56 3.82 5.64 2.4c0.03 0 0.05-0.01 0.07-0.01 1.75-0.02 3.28-0.95 4.15-2.33 0.49-0.77 0.78-1.67 0.78-2.65v-1.38V72.83v-6.59 -8V40.87C67.74 39.22 66.94 37.78 65.71 36.87z"/><circle fill="#81BCB9" cx="61.58" cy="92.54" r="3.17"/></svg>